<?xml version="1.0" encoding="utf-8"?>
<!-- Generator: Adobe Illustrator 24.3.0, SVG Export Plug-In . SVG Version: 6.00 Build 0)  -->
<svg version="1.1" id="Layer_1" xmlns="http://www.w3.org/2000/svg" xmlns:xlink="http://www.w3.org/1999/xlink" x="0px" y="0px"
	 viewBox="0 0 240.391 226.414" enable-background="new 0 0 240.391 226.414" xml:space="preserve">
<defs>
	<script  language="JavaScript"></script>
</defs>
<script  type="text/JavaScript">
	<![CDATA[
function notify( ref, type ) {
    var event = document.createEvent("CustomEvent");
    event.initEvent(type,true,true);
    ref.dispatchEvent(event);
}

		
		
		
		
		
		
		
		
		
		
		
		]]>
</script>
<g>
	<g>
		<g>
			<path fill="#EA8E10" d="M168.026,16.669c-13.312-2.005-30.541-3.215-49.379-3.215c-17.388,0-33.399,1.03-46.229,2.765V40.46
				H36.65v93.13H203.79V40.91h-35.765V16.669L168.026,16.669z"/>
		</g>
		<path fill="#231F20" d="M168.026,47.872V16.768c18.291,3.174,30.136,8.172,30.136,13.814c3.104,0,5.629,2.596,5.629,5.802v11.488
			H168.026z"/>
		<path fill="#231F20" d="M72.415,47.374V16.269C54.124,19.444,42.28,24.442,42.28,30.084c-3.105,0-5.632,2.594-5.632,5.801v11.488
			L72.415,47.374L72.415,47.374z"/>
	</g>
	<path fill="#F5A909" d="M213.098,132.777c-4.225-4.224-12.777-4.512-19.145-8.106c-25.554-14.445-43.263-19.029-73.162-19.029
		c-0.188,0-0.381,0.002-0.568,0.004c-0.188-0.001-0.385-0.004-0.569-0.004c-29.899,0-47.606,4.584-73.161,19.029
		c-6.367,3.597-14.923,3.886-19.146,8.106c-12.045,12.046-4.393,37.98-4.393,37.98c0,0.695,0.555,1.248,1.241,1.248h96.024h96.027
		c0.688,0,1.244-0.553,1.244-1.248C217.49,170.756,225.145,144.823,213.098,132.777z"/>
	<path fill="#F5A909" d="M143.329,14.193c0-2.861-9.302-9.327-23.238-9.327c-13.922,0-22.979,6.466-22.979,9.327"/>
	<path fill="#231F20" d="M216.016,172.004h-18.505h-39.844h-75.73H42.691H24.429c-0.729,0-1.311,0.83-1.311,1.861l3.521,8.496
		c0,1.078,0.562,1.967,1.252,1.967h13.404v26.131c0,0.854,0.625,1.549,1.395,1.549h39.246c0.768,0,1.393-0.694,1.393-1.549v-16.332
		h72.936v16.332c0,0.854,0.619,1.549,1.404,1.549h39.844c0.779,0,1.398-0.694,1.398-1.549v-26.131h13.629
		c0.699,0,1.266-0.889,1.266-1.967l3.518-8.496C217.321,172.835,216.729,172.004,216.016,172.004z"/>
	<path fill="#12100B" stroke="#4D4947" stroke-width="6" d="M162.682,155.443c0,3.901-3.162,7.063-7.063,7.063H84.823
		c-3.902,0-7.064-3.162-7.064-7.063v-26.56c0-3.907,3.162-7.069,7.064-7.069h70.795c3.901,0,7.063,3.162,7.063,7.069V155.443
		L162.682,155.443z"/>
	<path fill="#D0D0D0" stroke="#231F20" stroke-width="4" d="M213.374,147.778c0,8.426-6.817,15.258-15.256,15.258
		c-8.41,0-15.248-6.83-15.248-15.258c0-8.424,6.838-15.255,15.248-15.255C206.557,132.524,213.374,139.354,213.374,147.778z"/>
	<path fill="#FFFFFF" stroke="#231F20" stroke-width="2" d="M207.565,147.778c0,5.217-4.222,9.443-9.442,9.443
		c-5.207,0-9.439-4.229-9.439-9.443c0-5.214,4.232-9.441,9.439-9.441C203.343,138.336,207.565,142.564,207.565,147.778z"/>
	<path fill="#D0D0D0" stroke="#231F20" stroke-width="4" d="M57.571,147.778c0,8.426-6.817,15.258-15.259,15.258
		c-8.409,0-15.248-6.83-15.248-15.258c0-8.424,6.839-15.255,15.248-15.255C50.751,132.524,57.571,139.354,57.571,147.778z"/>
	<path fill="#FFFFFF" stroke="#231F20" stroke-width="2" d="M51.757,147.778c0,5.217-4.221,9.443-9.443,9.443
		c-5.207,0-9.438-4.229-9.438-9.443c0-5.214,4.23-9.441,9.438-9.441C47.538,138.336,51.757,142.564,51.757,147.778z"/>
	<line fill="none" stroke="#4D4947" stroke-width="5" x1="79.828" y1="138.493" x2="160.614" y2="138.493"/>
	<line fill="none" stroke="#4D4947" stroke-width="5" x1="79.828" y1="130.113" x2="160.614" y2="130.113"/>
	<line fill="none" stroke="#4D4947" stroke-width="5" x1="79.828" y1="146.874" x2="160.614" y2="146.874"/>
	<line fill="none" stroke="#4D4947" stroke-width="5" x1="79.828" y1="155.254" x2="160.614" y2="155.254"/>
	<g>
		<path fill="#FFFFFF" d="M115.517,91.793c0,0.688-0.555,1.249-1.244,1.249H43.56c-0.688,0-1.246-0.562-1.246-1.249V57.367
			c0-0.688,0.56-1.25,1.246-1.25h70.713c0.689,0,1.244,0.562,1.244,1.25V91.793z"/>
		<path fill="#FFFFFF" d="M198.12,91.793c0,0.688-0.556,1.249-1.242,1.249h-70.701c-0.692,0-1.264-0.562-1.264-1.249V57.367
			c0-0.688,0.567-1.25,1.264-1.25h70.701c0.688,0,1.242,0.562,1.242,1.25V91.793z"/>
		<g>
			<defs>
				<path id="SVGID_1_" d="M198.12,91.793c0,0.688-0.556,1.249-1.242,1.249h-70.701c-0.692,0-1.264-0.562-1.264-1.249V57.367
					c0-0.688,0.567-1.25,1.264-1.25h70.701c0.688,0,1.242,0.562,1.242,1.25V91.793z"/>
			</defs>
			<clipPath id="SVGID_2_">
				<use xlink:href="#SVGID_1_"  overflow="visible"/>
			</clipPath>
			<g clip-path="url(#SVGID_2_)">
				<path fill="#FDD31D" d="M158.426,60.909c0.127-0.164,0.254-0.328,0.38-0.492c0.816-0.913,0.86,0.215,1.235,0.467l-0.015-0.025
					c0.13,0.26-0.101,0.674,0.223,0.807c0.318,0.131,0.512-0.181,0.677-0.427l-0.013-0.068l0.058-0.038
					c0.289-0.537,0.637-0.801,1.161-0.252l-0.013-0.023c0.097,0.382,0.182,0.768,0.334,1.133c0.122,0.249,0.25,0.474,0.52,0.124
					c0.237-0.346,0.507-0.658,0.834-0.918c0.323-0.249,0.471-0.079,0.568,0.231c0.091,0.292,0.042,0.611,0.17,0.896
					c0.103,0.417,0.298,0.794,0.508,1.166c0.262,1.676-0.209,3.298-0.408,4.933c-0.615,5.056-1.34,10.099-1.492,15.201
					c-0.062,2.069,0.218,4.081,0.783,6.063c0.106,0.37,0.233,0.738,0.218,1.133c-0.037,0.36-0.249,0.61-0.518,0.824
					c-0.318,0.22-0.673,0.349-1.048,0.433c-0.645,0.214-1.336,0.195-1.984,0.398c-0.913,0.153-1.794,0.06-2.634-0.344
					c-0.538-0.641-0.005-1.643-0.746-2.216l0.021,0.016c-0.16-0.201-0.381-0.316-0.606-0.424c-0.468-0.072-0.929-0.157-1.268-0.532
					l0.021,0.026c-0.256-0.421-0.225-0.713,0.329-0.824c0.606-0.122,1.222-0.1,1.831-0.16c0.232-0.094,0.491-0.041,0.724-0.129
					c0.389-0.082,0.797-0.074,1.172-0.231c0.262-0.066,0.529-0.107,0.788-0.184c0.193-0.097,0.392-0.183,0.583-0.345
					c-0.241,0.083-0.392,0.268-0.611,0.33c-0.314,0.111-0.65,0.131-0.962,0.244c-0.391,0.142-0.817,0.099-1.211,0.23
					c-0.321-0.013-0.62,0.139-0.941,0.12c-1.624,0.177-3.247,0.336-4.879,0.106c-0.925-0.186-1.911-0.078-2.773-0.573l0.027,0.014
					c-0.189,0.01-0.357-0.047-0.506-0.161c-0.845-0.704-0.967-1.596-0.675-2.596c0.214-0.733,0.459-1.459,0.479-2.232
					c0.357-0.238,0.221-0.401-0.089-0.54c-0.269-0.263-0.465-0.558-0.464-0.948c0.41-1.058,0.9-1.397,2.01-1.209
					c1.113,0.188,2.222,0.163,3.335,0.117c0.725-0.011,1.149,0.53,1.661,0.91c0.285,0.343,0.63,0.565,1.099,0.533
					c0.616,0.008,1.231,0.004,1.845-0.002c0.554,0.016,1.008-0.242,1.451-0.531c0.451-0.345,0.847-0.744,1.193-1.194
					c0.296-0.442,0.452-0.935,0.523-1.458c0.031-0.543,0.02-1.086,0.012-1.628c-0.001-0.594-0.242-1.075-0.691-1.458
					c-0.337-0.309-0.672-0.62-0.953-0.983c-0.178-0.293-0.4-0.539-0.736-0.656c-0.373-0.147-0.747-0.284-1.154-0.301
					c-0.363-0.02-0.726-0.022-1.088-0.008c-0.422,0.007-0.806,0.13-1.146,0.384c-0.085,0.062-0.177,0.109-0.274,0.149
					c-0.35,0.1-0.663,0.275-0.967,0.47c-0.337,0.226-0.68,0.199-1.026,0.024c-0.137-0.062-0.269-0.136-0.4-0.213
					c-0.174-0.1-0.327-0.226-0.465-0.372c-0.269-0.33-0.624-0.458-1.042-0.44c-0.511-0.002-1.021-0.005-1.53,0.041
					c-0.3,0.018-0.637,0.17-0.82-0.228c0.972-1.013,0.525-2.318,0.615-3.47c0.192-2.455,0.409-4.918,0.296-7.391
					c-0.022-0.477-0.134-1.024,0.378-1.374c0.126,0.138,0.251,0.277,0.377,0.415c0.26,0.475,0.557,0.261,0.854,0.045
					c0.448-0.168,0.247-0.599,0.361-0.902c0.036-0.098,0.092-0.183,0.167-0.256c0.343-0.092,0.419,0.221,0.59,0.389
					c0.192,0.232,0.305,0.52,0.513,0.739c0.557,0.344,0.453-0.269,0.647-0.449c0.193-0.307,0.199-0.73,0.568-0.93
					c0.346-0.05,0.435,0.228,0.571,0.446c0.129,0.214,0.177,0.469,0.328,0.671c0.349,0.396,0.537,0.086,0.738-0.17
					c-0.014-0.062,0.005-0.112,0.055-0.15c0.21-0.21,0.26-0.624,0.697-0.546c0.293,0.23,0.378,0.574,0.484,0.903
					c0.099,0.307,0.258,0.472,0.593,0.319C158.066,61.206,158.23,61.038,158.426,60.909z"/>
				<path fill="#D7CFCC" d="M167.874,124.093c5.941-0.097,11.85,0.162,17.654,1.582c0.977,0.239,1.92,0.565,2.763,1.13
					c1.018,0.682,1.04,1.373,0.012,2.033c-1.218,0.781-2.598,1.182-3.998,1.47c-6.194,1.274-12.466,1.326-18.751,1.154
					c-0.028-0.112,0.002-0.208,0.081-0.29c0.179-0.124,0.387-0.16,0.595-0.191c0.433-0.077,0.867-0.155,1.261-0.371
					c0.13-0.078,0.267-0.136,0.417-0.159c0.301-0.01,0.578-0.084,0.791-0.315c0.355-0.379,0.183-0.812,0.125-1.232
					c-0.042-0.409-0.183-0.797-0.264-1.197c-0.055-0.255-0.142-0.501-0.224-0.748c-0.143-0.467-0.419-0.875-0.594-1.329
					c-0.038-0.11-0.062-0.223-0.08-0.338C167.64,124.876,167.573,124.451,167.874,124.093z"/>
				<path fill="#F2C421" d="M163.977,91.047c-1.518-4.298-1.301-8.672-0.76-13.108c0.278-2.28,0.458-4.578,0.759-6.86
					c0.29-2.203,0.574-4.406,0.866-6.609c0.05-0.381,0.181-0.768-0.203-1.062c-0.071-0.39,0.241-0.544,0.465-0.753
					c-0.033-0.199,0.134-0.244,0.251-0.328c0.982-0.6,0.982-0.6,1.241,0.979c0.143,1.163,0.667-0.267,0.922,0.133
					c0.187,0.015,0.354,0.077,0.49,0.211c0.324,0.6-0.241,1.168-0.064,1.763c-0.008,0.082-0.016,0.165-0.024,0.247
					c-0.264,0.481-0.415,0.996-0.465,1.542c-0.038,0.283-0.122,0.549-0.284,0.787c-0.64,2.068-0.839,4.221-1.246,6.333
					c-0.393,2.041-0.625,4.105-0.831,6.171c-0.011,0.113-0.042,0.223-0.089,0.326c-0.112,0.064-0.217,0.242-0.35,0.022
					c-0.013,0.168,0.11,0.143,0.193,0.113c0.505-0.179,0.879,0.071,1.244,0.363l-0.021-0.025c0.376,0.233,0.467,0.624,0.561,1.014
					c0.053,0.466,0.005,0.915-0.216,1.337c-0.186,0.352-0.359,0.718-0.806,0.809c-0.454,0.062-0.724,0.166-0.622,0.78
					c0.09,0.54,0.201,1.105,0.151,1.671c0.002,0.337-0.016,0.675,0.104,0.999c0.045,0.577,0.105,1.152,0.223,1.72
					c0.17,0.349,0.115,0.683-0.066,1.009c-0.222,0.35-0.534,0.592-0.916,0.748C164.225,91.406,164.048,91.307,163.977,91.047z"/>
				<path fill="#0093C6" d="M170.649,112.415c-0.13,0.15-0.26,0.3-0.389,0.45c-0.293,0.371,0.023,0.856-0.23,1.234
					c-0.531,0.042-0.233-0.459-0.438-0.668c0.323,1.136,0.526,2.228-0.605,3.044c-0.3,0.262-0.676,0.274-1.041,0.321
					c-0.888-0.253-1.744,0.124-2.619,0.137c-0.716,0.011-1.3-0.125-1.44-0.967c-0.069-0.414-0.387-0.634-0.716-0.85
					c-0.668-0.438-0.604-0.9,0.111-1.136c1.178-0.39,2.043-1.172,2.871-2.029c0.224-0.117,0.448-0.125,0.673-0.003
					c0.617,0.48,0.617,0.48,0.538,1.132c0.047-0.311,0.684-0.342,0.343-0.834c-0.377-0.222-0.489-0.555-0.42-0.966
					c0.116-0.387,0.093-0.813,0.329-1.166c0.137-0.131,0.304-0.186,0.488-0.199c0.119-0.005,0.238,0.007,0.355,0.031
					c0.795,0.227,1.622,0.02,2.423,0.175c0.111,0.03,0.215,0.078,0.31,0.142c0.077,0.08,0.134,0.175,0.172,0.28
					c0.098,0.429-0.108,0.816-0.18,1.222l0.008-0.018C170.872,111.857,170.802,112.169,170.649,112.415z"/>
				<path fill="#D4352B" d="M168.129,92.987c0.17,0.261,0.339,0.522,0.509,0.783c0.303,0.461,0.425,1.008,0.703,1.481l-0.008-0.013
					c0.102,0.16,0.149,0.337,0.152,0.525c-0.017,0.114-0.049,0.231-0.04,0.345c0.162,2.13,0.163,2.13-2.003,1.996
					c-0.271-0.017-0.539-0.062-0.808-0.083c-0.413-0.033-0.981,0.198-1.183-0.224c-0.215-0.449,0.42-0.542,0.66-0.808
					c0.296-0.329,0.317-0.692,0.242-1.084c-0.132-0.686-0.331-1.351-0.613-1.994c-0.695-1.581-0.663-1.63,1.04-1.802
					c0.115-0.023,0.23-0.019,0.344,0.011C167.508,92.353,167.809,92.681,168.129,92.987z"/>
				<path fill="#F1A282" d="M153.298,104.696c0.012-0.209,0.024-0.418,0.037-0.626c0.248-0.429,0.546-0.83,0.701-1.309
					c0.284-0.604,0.613-1.185,0.921-1.775c0.176-0.53,0.264-1.078,0.334-1.63c-0.008-0.154-0.023-0.307-0.018-0.462
					c0.01-0.105,0.042-0.204,0.091-0.297c0.277-0.453,0.377-0.96,0.45-1.476c0.01-0.105,0.03-0.208,0.053-0.31
					c0.105-0.351,0.173-0.711,0.269-1.064c0.08-0.25,0.161-0.501,0.239-0.752c0.084-0.255,0.158-0.512,0.231-0.771
					c0.094-0.319,0.176-0.643,0.412-0.896c-0.076-0.305,0.145-0.519,0.236-0.774c0.264-0.593,0.525-0.434,0.786,0.002
					c-0.436,2.77-1.089,5.5-1.57,8.263c-0.105,0.603-0.558,1.091-0.875,1.617c-0.918,1.525-1.719,3.092-1.993,4.882
					c-0.078,0.512-0.214,1.031-0.947,0.813c-0.175-0.124-0.191-0.301-0.161-0.493c0.105-0.594,0.238-1.182,0.382-1.767
					C152.935,105.452,153.076,105.059,153.298,104.696z"/>
				<path fill="#E54B27" d="M169.75,101.479c0.024,0.088,0.048,0.177,0.072,0.265c0.168,0.24,0.32,0.492,0.506,0.719
					c0.143,0.307,0.224,0.647,0.466,0.903c0.146,0.199,0.194,0.447,0.329,0.651c0.23,0.306,0.23,0.737,0.542,0.998l-0.014-0.024
					c0.075,0.721,0.338,1.402,0.445,2.117c0.104,0.347,0.244,0.686,0.241,1.058c-0.039,0.507,0.123,1.038-0.185,1.511
					c-0.771,0.424-1.585,0.563-2.448,0.37c-0.004-0.493-0.019-0.531,0.561-0.75c0.594-0.224,0.909-0.583,0.798-1.224
					c-0.365-2.12-1.127-4.088-2.285-5.902c-0.129-0.13-0.235-0.275-0.311-0.442c-0.112-0.298-0.105-0.601-0.042-0.907
					c0.197-0.403,0.011-1.005,0.614-1.2C169.349,100.212,169.135,101.004,169.75,101.479z"/>
				<path fill="#FAE38C" d="M150.343,60.833c-0.209,0.761-0.091,1.539-0.089,2.307c0.008,2.55-0.071,5.094-0.411,7.624
					c-0.015,0.115-0.068,0.281-0.013,0.34c1.051,1.141-0.279,1.428-0.719,2.031c0.001,0.186-0.084,0.331-0.214,0.456
					c-0.25,0.182-0.505,0.298-0.782,0.047c-0.114-0.422-0.016-0.793,0.272-1.118c0.096-0.094,0.192-0.189,0.287-0.283
					c0.63-0.503,0.507-1.246,0.611-1.917c0.115-0.619,0.035-1.243,0.059-1.864c-0.039-0.665,0.161-1.313,0.141-1.977
					c0.193-1.075,0.045-2.16,0.091-3.239c0.003-0.677-0.005-1.353,0.006-2.03c0.009-0.206,0.02-0.412,0.16-0.582
					c0.197-0.127,0.38-0.152,0.531,0.07C150.314,60.733,150.338,60.778,150.343,60.833z"/>
				<path fill="#F0F0F0" d="M151.77,128.93c-0.234,0.034-0.463,0.053-0.57-0.229c-0.354-0.522-0.694-1.04,0.355-1.116
					c0.529,0.087,1.038,0.266,1.569,0.347c0.416,0.03,0.804,0.21,1.224,0.22c0.43,0.022,0.863,0.01,1.286,0.107
					c0.79,0.297,1.661-0.044,2.445,0.308c0.12,0.079,0.182,0.191,0.187,0.334c-0.061,0.374-0.278,0.613-0.631,0.735
					c-0.8,0.158-1.611,0.059-2.417,0.089c-0.673,0.037-1.316-0.137-1.962-0.286C152.77,129.241,152.223,129.222,151.77,128.93z"/>
				<path fill="#F2C91D" d="M165.021,80.657c-0.589-0.407-0.12-0.94-0.081-1.356c0.355-3.836,1.107-7.612,1.846-11.389
					c0.006-0.029,0.044-0.078,0.056-0.075c0.066,0.018,0.128,0.049,0.191,0.075c0.275,0.281,0.166,0.642,0.206,0.972l0.033,0.049
					l-0.04,0.043c-0.372,0.564-0.316,1.235-0.469,1.854c-0.007,0.161-0.046,0.314-0.117,0.459c-0.127,0.761-0.282,1.518-0.35,2.287
					c-0.011,0.346-0.236,0.658-0.16,1.018c-0.09,0.498-0.123,1.006-0.261,1.496c-0.182,1.268-0.406,2.53-0.495,3.81
					C165.358,80.193,165.399,80.528,165.021,80.657z"/>
				<path fill="#020506" d="M167.453,117.051c-0.144,0.026-0.288,0.051-0.432,0.077c-0.108,0.075-0.223,0.138-0.343,0.192
					c-0.575,0.141-1.161,0.064-1.741,0.09c-0.429-0.001-0.859-0.005-1.287-0.004c-0.355,0.051-0.823-0.162-0.953,0.415
					c-0.08,1.872,0.058,3.744-0.072,5.612c-0.031,0.137-0.087,0.261-0.168,0.375c-0.227,0.216-0.48,0.235-0.753,0.103
					c-0.101-0.095-0.14-0.213-0.119-0.35c0.423-1.804,0.148-3.631,0.168-5.449c0.004-0.392-0.261-0.614-0.637-0.698
					c-0.179-0.029-0.353-0.073-0.521-0.141c-0.283-0.131-0.507-0.326-0.644-0.612c-0.071-0.238-0.017-0.477-0.007-0.716
					c0.133-0.419-0.341-0.986,0.309-1.28c0.494,0.104,0.516,0.527,0.571,0.896c0.089,0.6,0.455,0.905,1.013,0.906
					c1.682,0.004,3.346,0.51,5.039,0.173C167.14,116.676,167.436,116.669,167.453,117.051z"/>
				<path fill="#D17C5F" d="M156.069,96.845c0.002,0.095,0.003,0.19,0.005,0.285c-0.271,0.206-0.215,0.624-0.523,0.806
					c-0.395,0.17-0.656-0.067-0.919-0.3c-0.238-0.243-0.017-0.577-0.169-0.837c0.499-1.039,0.934-2.119,1.855-2.888
					c0.206-0.147,0.278,0.009,0.354,0.157c0.033,0.278-0.087,0.523-0.167,0.777c-0.108,0.286-0.172,0.587-0.294,0.868
					C156.244,96.1,155.948,96.446,156.069,96.845z"/>
				<path fill="#EEDA92" d="M148.936,82.507c0.264,0.743-0.015,1.434-0.273,2.092c-0.404,1.027-0.318,1.924,0.458,2.73
					c-0.396,0.319-0.657-0.027-0.954-0.193c-0.211-0.067-0.388-0.171-0.453-0.401c-0.139-0.268-0.231-0.548-0.222-0.855
					c-0.028-0.473,0.257-0.894,0.227-1.367c-0.026-0.059-0.019-0.114,0.021-0.164c0.265-0.302,0.253-0.708,0.395-1.058
					c0.191-0.405-0.225-1.208,0.73-1.107C148.966,82.273,148.99,82.381,148.936,82.507z"/>
				<path fill="#7CB1D4" d="M152.351,125.877c-0.012-0.505,0.497-0.589,0.727-0.898c0.666-0.264,1.208-0.757,1.877-1.016
					c0.254-0.066,0.434,0.013,0.526,0.266c0.014,0.458-0.352,0.655-0.646,0.866c-0.991,0.713-1.822,1.587-2.624,2.495
					c-0.148,0.095-0.306,0.121-0.474,0.066c-0.155-0.062-0.289-0.151-0.371-0.304c-0.058-0.285,0.108-0.505,0.219-0.74
					C151.795,126.319,152.108,126.135,152.351,125.877z"/>
				<path fill="#403D29" d="M156.111,121.974c-0.011-1.933-0.022-3.867-0.033-5.8c-0.042-0.257,0.073-0.314,0.297-0.233
					c0.082,0.095,0.14,0.203,0.176,0.324c0.072,0.435,0.129,0.873,0.258,1.299c0.09,1.627,0.098,3.253,0.004,4.88
					c-0.052,0.196-0.137,0.37-0.327,0.47C155.927,122.773,156.204,122.299,156.111,121.974z"/>
				<path fill="#DCD5D2" d="M157.717,130.793c-1.615-0.13-3.167-0.519-4.659-1.15c0.419-0.422,0.893-0.105,1.344-0.103
					c0.667,0.178,1.348,0.064,2.023,0.097C157.908,129.67,157.967,129.722,157.717,130.793z"/>
				<path fill="#232014" d="M157.745,88.079c-0.56,0.315-1.186,0.197-1.781,0.242c-0.474,0.036-0.727,0.157-0.571,0.677
					c-0.833-0.822-1.922-0.513-2.907-0.653c-0.495-0.07-0.996-0.104-1.494-0.155c0.347-0.478,0.793-0.203,1.209-0.16
					c1.684-0.056,3.369-0.113,5.053-0.169C157.394,87.986,157.639,87.876,157.745,88.079z"/>
				<path fill="#272727" d="M165.636,131.282c-0.039,0.054-0.066,0.114-0.082,0.18c-1.797,0.067-3.592,0.345-5.393,0.065
					c-0.372-0.058-0.776,0.029-1.101-0.243c0.137-0.257,0.367-0.382,0.638-0.449c1.768,0.155,3.536,0.075,5.305-0.016
					C165.274,130.892,165.502,131.022,165.636,131.282z"/>
				<path fill="#403507" d="M166.778,117.111c0.081,0.006,0.162,0.011,0.243,0.017c-0.003,2.068-0.007,4.137-0.01,6.205
					c-0.505,0.038-0.491-0.366-0.532-0.672c-0.055-0.408-0.055-0.823-0.193-1.218c-0.089-1.307-0.162-2.615,0.037-3.921
					C166.409,117.312,166.582,117.198,166.778,117.111z"/>
				<path fill="#403B28" d="M149.856,60.679c-0.032,0.151-0.064,0.303-0.096,0.454c-0.119,0.68-0.115,1.36-0.002,2.04
					c0.07,1.12,0.092,2.237-0.146,3.343c-0.353-0.441,0.02-1.002-0.242-1.458c-0.002-1.706-0.005-3.412-0.004-5.119
					c0-0.032,0.044-0.093,0.059-0.09c0.054,0.009,0.104,0.04,0.156,0.063C149.728,60.148,149.819,60.404,149.856,60.679z"/>
				<path fill="#302B16" d="M165.021,80.657c0.512-1.526,0.254-3.183,0.806-4.702c0.19,0.323,0.164,0.651,0.022,0.981
					c0.139,1.3-0.444,2.567-0.181,3.873c-0.25,0.233-0.51,0.198-0.776,0.03C164.937,80.78,164.98,80.719,165.021,80.657z"/>
				<path fill="#1D1604" d="M157.883,92.515c-0.224-0.208-0.424-0.031-0.63,0.04c-0.396-0.362,0.023-0.566,0.159-0.825
					c0.292-0.146,0.389,0.141,0.564,0.254c0.878,0.219,1.778,0.188,2.671,0.223c0.299-0.086,0.604-0.182,0.487,0.336
					C160.047,92.962,158.963,93.01,157.883,92.515z"/>
				<path fill="#1D1D1D" d="M147.007,78.554c-0.53-1.095-0.396-2.19,0.001-3.285c0.227-0.066,0.332,0.072,0.416,0.247
					c0.028,0.893-0.119,1.784-0.031,2.679C147.327,78.384,147.199,78.504,147.007,78.554z"/>
				<path d="M169.973,114.062c0.13-0.391-0.201-0.892,0.287-1.197c0.006,1.098,0.292,2.198-0.019,3.295
					c-0.265,0.052-0.351-0.13-0.428-0.325C169.818,115.24,169.654,114.629,169.973,114.062z"/>
				<path fill="#141103" d="M164.947,86.874c-0.023-0.307-0.098-0.62-0.059-0.919c0.103-0.787-0.117-1.389-0.838-1.835
					c0.509,0.104,1.018,0.207,1.527,0.311c0.008,0.044,0.016,0.088,0.025,0.131c-0.59,0.326-0.354,0.91-0.436,1.395
					C165.211,86.29,165.507,86.684,164.947,86.874z"/>
				<path fill="#1D2326" d="M169.989,115.905c0.084,0.085,0.168,0.17,0.253,0.255c-0.797,0.712-1.817,0.725-2.788,0.891
					c-0.158-0.072-0.315-0.144-0.473-0.215c0.167-0.59,0.593-0.256,0.925-0.26c0.353,0.06,0.656-0.078,0.956-0.235
					C169.224,116.162,169.509,115.782,169.989,115.905z"/>
				<path fill="#171B1D" d="M157.717,130.793c0.153-1.225-0.813-0.803-1.395-0.948c0.306-0.681,0.964-0.109,1.382-0.389
					c0.132-0.181,0.265-0.362,0.397-0.543c0.091-0.076,0.193-0.09,0.304-0.052c0.19,0.133,0.293,0.326,0.362,0.54
					c0.035,0.158,0.022,0.312-0.056,0.456c-0.289,0.175-0.533,0.387-0.592,0.746c-0.044,0.091-0.107,0.164-0.191,0.219l-0.108,0.002
					L157.717,130.793z"/>
				<path fill="#110B0A" d="M167.212,92.296c-0.077-0.006-0.153-0.013-0.23-0.019c-0.573-0.045-1.195,0.14-1.676-0.346
					c-0.087-0.747,0.7-0.57,0.981-0.929c0.124-0.108,0.255-0.2,0.434-0.154c0.108,0.416,0.095,0.884,0.507,1.169
					C167.332,92.115,167.327,92.208,167.212,92.296z"/>
				<path fill="#BC9225" d="M158.179,61.597c-0.608,0.42-0.975,0.214-1.156-0.451c-0.09-0.33-0.166-0.664-0.249-0.996
					c-0.055-0.06-0.074-0.12-0.057-0.181c0.017-0.061,0.034-0.092,0.052-0.092c0.155-0.076,0.302-0.073,0.44,0.041
					c0.027,0.086,0.053,0.171,0.08,0.257C157.59,60.646,157.892,61.117,158.179,61.597z"/>
				<path fill="#38352C" d="M148.817,82.33c-0.796,0.065-0.194,0.869-0.602,1.138c-0.216-0.111-0.096-0.372-0.231-0.52
					c0.008-0.473,0.016-0.947,0.023-1.42c0.03-0.09,0.07-0.175,0.12-0.257c0.094-0.045,0.176-0.026,0.248,0.047
					c0.168,0.231,0.336,0.462,0.504,0.693C148.98,82.142,148.959,82.248,148.817,82.33z"/>
				<path fill="#A18A26" d="M155.404,98.861c0.187,0.054,0.227,0.185,0.188,0.358c-0.404,0.391-0.14,1.083-0.645,1.429
					c-0.446,0.04-0.336-0.345-0.435-0.57c0.548-0.42,0.042-1.076,0.346-1.55C155.104,98.533,155.372,98.503,155.404,98.861z"/>
				<path fill="#3F3A22" d="M166.113,73.664c0.058-0.793,0.083-1.592,0.41-2.339c0.232,0.182,0.037,0.489,0.202,0.69
					c-0.077,0.723-0.11,1.454-0.39,2.14C166.109,74.061,166.239,73.805,166.113,73.664z"/>
				<path fill="#18160C" d="M166.517,63.465c-0.062-0.21-0.185-0.422-0.175-0.628c0.045-0.927-0.421-0.801-0.987-0.51
					c0.06-0.597,0.61-0.676,1.069-1.18c0.124,0.753,0.212,1.289,0.3,1.825C166.6,63.113,166.717,63.356,166.517,63.465z"/>
				<path fill="#0A0404" d="M169.568,109.85c0.865,0.151,1.685-0.11,2.514-0.28c0.071,0.057,0.099,0.118,0.085,0.185
					c-0.015,0.069-0.032,0.103-0.053,0.103c-0.055,0.051-0.119,0.068-0.192,0.051c-0.277,0.077-0.311,0.557-0.711,0.428
					l-0.069,0.032c-0.893-0.346-1.844,0.044-2.744-0.215c-0.077-0.027-0.154-0.053-0.231-0.08c0.004-0.342,0.273-0.373,0.513-0.439
					C169,109.608,169.315,109.602,169.568,109.85z"/>
				<path fill="#27251E" d="M149.357,70.425c-0.228,0.604,0.583,1.599-0.682,1.812c0.487-0.946,0.357-1.989,0.47-2.994
					C149.739,69.543,149.41,70.009,149.357,70.425z"/>
				<path fill="#2C0F09" d="M172.115,109.858c-0.011-0.096-0.021-0.192-0.032-0.288c0.024-0.52,0.047-1.04,0.071-1.559
					c0.12-0.135,0.013-0.37,0.209-0.47C172.479,108.334,173.067,109.178,172.115,109.858z"/>
				<path fill="#1B2224" d="M153.729,111.222c-0.102-0.356-0.205-0.713-0.307-1.069c0.079-0.088,0.179-0.127,0.296-0.124
					c0.526,0.206,0.762,0.632,0.872,1.152c0.004,0.169-0.052,0.321-0.142,0.461c-0.124,0.181-0.185,0.391-0.269,0.593
					c-0.086,0.16-0.182,0.302-0.401,0.229C153.545,112.058,153.626,111.641,153.729,111.222z"/>
				<path fill="#443E2A" d="M149.357,70.425c-0.093-0.39,0.137-0.838-0.213-1.182c-0.034-0.65-0.049-1.299,0.16-1.929
					c0.339,0.355,0.001,0.842,0.237,1.216C149.567,69.17,149.626,69.814,149.357,70.425z"/>
				<path fill="#3B361F" d="M166.579,70.878c0.254-0.621-0.169-1.474,0.652-1.901c-0.039,0.814-0.122,1.62-0.44,2.382
					C166.589,71.256,166.697,71.017,166.579,70.878z"/>
				<path fill="#241410" d="M169.75,101.479c-0.914-0.324-0.533-1.147-0.68-1.766c-0.075-0.084-0.094-0.181-0.067-0.289
					c0.151-0.254,0.361-0.384,0.665-0.316c0.042,0.033,0.083,0.066,0.125,0.099C168.826,99.946,169.679,100.72,169.75,101.479z"/>
				<path fill="#3C3411" d="M157.976,91.984c-0.188-0.085-0.376-0.17-0.564-0.254c0.155-0.628-0.04-1.22-0.187-1.816
					c0.63-0.232,0.487,0.321,0.546,0.585C157.88,90.984,157.912,91.488,157.976,91.984z"/>
				<path fill="#131312" d="M166.571,121.517c0.49,0.522-0.169,1.323,0.441,1.816c0.22,0.023,0.392,0.102,0.411,0.358
					c0.008,0.23-0.159,0.282-0.334,0.327c-0.189,0.019-0.366-0.018-0.529-0.119c-0.153-0.131-0.237-0.301-0.286-0.493
					C166.262,122.759,166.02,122.075,166.571,121.517z"/>
				<path fill="#040607" d="M155.025,124.107c-0.625,0.343-1.165,0.878-1.947,0.872c0.407-0.557,0.983-0.864,1.61-1.099
					C154.81,123.942,154.976,123.938,155.025,124.107z"/>
				<path fill="#2D2B23" d="M149.542,68.53c-0.348-0.353-0.114-0.82-0.237-1.217c0.022-0.752,0.044-1.504,0.066-2.256
					c0.39,0.435,0.101,0.982,0.242,1.458C149.589,67.187,149.565,67.859,149.542,68.53z"/>
				<path fill="#252525" d="M165.849,76.936c-0.007-0.327-0.015-0.654-0.022-0.981c-0.225-0.508-0.006-0.939,0.237-1.366
					c0.098,0.043,0.165,0.114,0.202,0.215C166.181,75.525,166.235,76.273,165.849,76.936z"/>
				<path fill="#0C0C0C" d="M151.423,127.315c0.074,0.117,0.147,0.233,0.221,0.35l0.025,0.009c-0.782,0.056-0.709,0.503-0.47,1.026
					c-1.064-0.542-0.425-1.092-0.008-1.64C151.336,127.084,151.367,127.212,151.423,127.315z"/>
				<path fill="#27200E" d="M158.179,61.597c-0.719-0.209-0.686-0.89-0.891-1.421c0.566-0.045,0.523,0.855,1.138,0.733
					C158.486,61.189,158.29,61.378,158.179,61.597z"/>
				<path fill="#110C0A" d="M155.024,101.075c0.071,0.783-0.643,1.189-0.875,1.826c-0.368-0.039-0.285-0.24-0.164-0.455
					c0.087-0.228,0.174-0.456,0.262-0.685c0.166-0.27,0.255-0.608,0.617-0.708C154.917,101.061,154.971,101.068,155.024,101.075z"/>
				<path fill="#342420" d="M169.274,95.744c0.02-0.168,0.04-0.337,0.059-0.505c0.643,0.385,0.482,1.082,0.641,1.655
					c-0.145,0.145,0.036,0.521-0.35,0.495C169.451,96.852,169.107,96.352,169.274,95.744z"/>
				<path fill="#252111" d="M152.201,88.031c-0.4,0.076-0.832-0.087-1.209,0.16c-0.514-0.206-1.268,0.196-1.548-0.607
					C150.363,87.732,151.282,87.882,152.201,88.031z"/>
				<path fill="#2B2B2B" d="M167.341,123.814c0.003-0.057,0.03-0.098,0.082-0.124c0.368-0.11,0.213,0.367,0.451,0.402
					c0.01,0.454,0.019,0.908,0.029,1.362c-0.39,0.042-0.486-0.272-0.636-0.522C167.191,124.554,166.842,124.155,167.341,123.814z"/>
				<path fill="#262218" d="M153.967,60.841c0.029,0.479-0.222,0.828-0.505,1.18c-0.26-0.19-0.358-0.425-0.401-0.69
					c-0.068-0.238,0.027-0.302,0.247-0.232c0.308-0.002,0.172-0.423,0.439-0.464C153.944,60.572,154.047,60.608,153.967,60.841z"/>
				<path fill="#1B1605" d="M160.927,61.239c-0.063,0.427-0.312,0.726-0.714,1.037c-0.266-0.482-0.512-0.898-0.187-1.418
					C160.215,61.249,160.461,61.506,160.927,61.239z"/>
				<path fill="#242014" d="M164.4,62.345c-0.426-0.184,0.166-1.039-0.641-0.972c-0.114-0.112-0.132-0.238-0.052-0.377
					c0.137-0.238,0.451-0.572,0.572-0.447c0.309,0.319,0.306,0.818,0.352,1.264C164.505,61.968,164.63,62.234,164.4,62.345z"/>
				<path fill="#253139" d="M153.729,111.222c0.112,0.399-0.1,0.854,0.213,1.218c0.428,0.349,0.358,0.788,0.227,1.238
					c-0.056,0.118-0.149,0.195-0.275,0.229c-0.424-0.113-0.131-0.546-0.337-0.758C153.525,112.5,153.515,111.851,153.729,111.222z"
					/>
				<path fill="#2C2B2A" d="M154.325,129.669c-0.422-0.009-0.845-0.017-1.267-0.026c-0.102-0.067-0.205-0.134-0.307-0.201
					c0.115-0.224,0.377-0.102,0.534-0.227c0.619,0.073,1.239,0.146,1.858,0.22C155.006,129.988,154.618,129.664,154.325,129.669z"/>
				<path fill="#1D1412" d="M153.109,109.422c-0.128-0.314-0.233-0.643-0.552-0.83c-0.084-0.106-0.091-0.216-0.02-0.331
					c0.55-0.14,1.053-0.15,1.337,0.469c0.004,0.252-0.157,0.406-0.327,0.556C153.419,109.387,153.285,109.472,153.109,109.422z"/>
				<path fill="#343123" d="M167.276,67.152c0.255-0.479-0.129-1.235,0.644-1.491c-0.064,0.691-0.149,1.378-0.417,2.028
					C167.277,67.574,167.399,67.311,167.276,67.152z"/>
				<path fill="#171717" d="M155.025,124.107c-0.112-0.076-0.225-0.151-0.337-0.227c0.078-0.017,0.157-0.033,0.235-0.05
					c0.173-0.169,0.077-0.586,0.492-0.532c0.425,0.255,0.907,0.455,0.991,1.037c-0.37,0.464-0.669,0.226-0.96-0.096
					C155.305,124.195,155.165,124.151,155.025,124.107z"/>
				<path fill="#37331F" d="M167.944,65.413c-0.557-0.569,0.175-1.163-0.035-1.739c-0.052-0.059-0.071-0.119-0.055-0.18
					c0.016-0.061,0.032-0.092,0.049-0.092c0.43-0.098,0.314,0.308,0.446,0.485C168.243,64.404,168.253,64.951,167.944,65.413z"/>
				<path fill="#050505" d="M148.387,72.52c-0.001,0.389-0.324,0.719-0.205,1.13c0.164,0.129,0.355,0.243,0.296,0.504
					c-0.121,0.257-0.313,0.426-0.598,0.48c-0.051-0.015-0.102-0.029-0.154-0.044C148.158,73.967,147.472,72.988,148.387,72.52z"/>
				<path fill="#151312" d="M153.985,102.446c0.055,0.152,0.109,0.303,0.164,0.455c-0.273,0.389-0.184,1.029-0.815,1.169
					C153.282,103.42,153.679,102.952,153.985,102.446z"/>
				<path fill="#1D1D1C" d="M165.335,89.736c-0.261-0.582-0.198-1.207-0.238-1.818c-0.036-0.238-0.191-0.525,0.235-0.574
					c0.074,0.628,0.149,1.255,0.223,1.883C165.435,89.375,165.568,89.634,165.335,89.736z"/>
				<path fill="#121210" d="M160.041,60.883c-0.476,0.014-0.59-0.929-1.235-0.467c0.076-0.385,0.26-0.695,0.636-0.896
					C159.713,59.945,160.024,60.347,160.041,60.883z"/>
				<path fill="#172B33" d="M155.152,115.912c-0.579-0.017-1.053-0.234-1.383-0.726c-0.063-0.056-0.086-0.113-0.067-0.172
					c0.019-0.059,0.038-0.089,0.058-0.089c0.096-0.05,0.199-0.075,0.307-0.079c0.107,0.009,0.211,0.034,0.312,0.073
					c0.36,0.21,0.84,0.227,1.065,0.657C155.459,115.785,155.277,115.823,155.152,115.912z"/>
				<path fill="#333230" d="M154.992,101.121c-0.248,0.214-0.497,0.427-0.745,0.641c0.088-0.561,0.176-1.121,0.264-1.683
					c0.125,0.168,0.25,0.337,0.376,0.507C155.06,100.737,155.07,100.92,154.992,101.121z"/>
				<path fill="#211D15" d="M162.133,60.881c-0.456-0.232-0.797,0.062-1.161,0.252c-0.073-0.607,0.421-0.823,0.775-1.149
					C162.027,60.231,162.113,60.542,162.133,60.881z"/>
				<path fill="#151514" d="M168.349,63.887c-0.141-0.137-0.282-0.274-0.423-0.411c-0.153-0.246-0.085-0.491,0.003-0.736
					c0.19-0.175,0.376-0.358,0.675-0.368C168.728,62.917,168.429,63.385,168.349,63.887z"/>
				<path fill="#1A110F" d="M165.335,89.736c0.073-0.17,0.147-0.34,0.22-0.51c-0.138,0.528,0.658,0.592,0.548,1.105
					c-0.026,0.05-0.051,0.101-0.076,0.152c-0.276,0.223-0.56,0.404-0.918,0.161C165.185,90.341,165.26,90.039,165.335,89.736z"/>
				<path fill="#3D302B" d="M153.014,105.921c-0.127,0.568-0.255,1.135-0.382,1.703c-0.221-0.107-0.098-0.372-0.237-0.516
					c0.067-0.503,0.098-1.016,0.381-1.464C152.935,105.667,152.948,105.817,153.014,105.921z"/>
				<path fill="#25231A" d="M154.889,60.453c-0.132-0.158-0.264-0.316-0.397-0.474c-0.25,0.029-0.401-0.034-0.307-0.327
					c0.444-0.504,0.444-0.504,0.913,0.539C155.059,60.303,155.042,60.432,154.889,60.453z"/>
				<path fill="#1F1C13" d="M151.701,61.32c-0.2,0.251-0.213,0.763-0.625,0.7c-0.306-0.047-0.372-0.446-0.356-0.771
					c0.427,0.348,0.57-0.378,0.939-0.248C151.745,61.097,151.759,61.204,151.701,61.32z"/>
				<path fill="#171307" d="M164.4,62.345c0.077-0.177,0.155-0.355,0.232-0.532c0.094,0.316,0.03,0.721,0.472,0.842
					c0.014,0.356-0.347,0.479-0.465,0.753C164.272,63.118,164.444,62.707,164.4,62.345z"/>
				<path fill="#2E2A18" d="M167.276,67.152c0.076,0.179,0.152,0.358,0.227,0.537c-0.016,0.414,0.002,0.836-0.264,1.194
					c-0.414-0.251-0.155-0.644-0.206-0.972C167.114,67.659,167.195,67.406,167.276,67.152z"/>
				<path fill="#2F1B17" d="M171.911,107.103c0.049-0.721-0.567-1.359-0.261-2.111c0.399,0.554,0.552,1.171,0.47,1.848
					C172.263,107.096,172.105,107.113,171.911,107.103z"/>
				<path d="M164.892,80.839c0.259-0.01,0.517-0.02,0.776-0.03c0.323,0.019,0.518,0.144,0.423,0.51
					c-0.563-0.117-1.098-0.374-1.705-0.425C164.555,80.876,164.723,80.858,164.892,80.839z"/>
				<path fill="#403507" d="M165.332,87.343c-0.078,0.191-0.157,0.383-0.235,0.574c-0.186-0.328-0.197-0.681-0.15-1.043
					c0.289-0.255,0.105-0.622,0.219-0.918C165.364,86.401,165.345,86.873,165.332,87.343z"/>
				<path fill="#171409" d="M166.517,63.465c0.069-0.165,0.138-0.329,0.208-0.494c0.02,0.391,0.206,0.446,0.514,0.254
					c0.157,0.066,0.235,0.18,0.212,0.354C167.18,63.199,166.655,64.919,166.517,63.465z"/>
				<path fill="#2F2F2F" d="M155.341,123.37c-0.139,0.154-0.279,0.307-0.418,0.461c0.103-0.485-0.134-1.101,0.527-1.372
					c0.223-0.046,0.257,0.11,0.289,0.269C155.712,123.007,155.625,123.25,155.341,123.37z"/>
				<path fill="#35332C" d="M167.449,63.579c-0.07-0.118-0.141-0.236-0.212-0.354c0.168-0.251,0.412-0.392,0.692-0.484
					c0.132,0.245,0.05,0.49-0.003,0.735c-0.004,0.067-0.01,0.132-0.017,0.198C167.756,63.643,167.603,63.611,167.449,63.579z"/>
				<path fill="#472C15" d="M155.404,98.861c-0.182-0.111-0.364-0.223-0.546-0.333c0.09-0.272-0.049-0.484-0.187-0.696
					c0.005-0.052,0.009-0.104,0.014-0.157c0.3,0.039,0.601,0.078,0.901,0.116c0.174,0.366-0.151,0.638-0.181,0.966l0.033,0.052
					L155.404,98.861z"/>
				<path fill="#171204" d="M156.058,60.83c0.027,0.432-0.261,0.688-0.529,0.964c-0.236-0.182-0.29-0.439-0.339-0.699
					c0.03-0.11,0.099-0.188,0.202-0.237C155.614,60.849,155.836,60.84,156.058,60.83z"/>
				<path fill="#020202" d="M148.199,81.291c-0.064,0.079-0.128,0.158-0.191,0.237c-0.317-0.508-0.046-1.06-0.12-1.587
					c0.153-0.148,0.326-0.159,0.512-0.073C148.616,80.383,148.303,80.822,148.199,81.291z"/>
				<path fill="#403C2A" d="M155.372,88.973c0.471,0.151,0.941,0.302,1.412,0.454c-0.091,0.205-0.332,0.088-0.46,0.213
					C155.895,89.577,155.429,89.566,155.372,88.973z"/>
				<path d="M166.305,83.657c0.069-0.464,0.138-0.928,0.207-1.392c-0.1-0.24,0.019-0.282,0.223-0.246
					c0.119,0.641,0.157,1.271-0.246,1.842C166.312,83.898,166.206,83.87,166.305,83.657z"/>
				<path fill="#39241F" d="M171.665,105.015c-0.545-0.081-0.55-0.559-0.69-0.938c0.038-0.111,0.11-0.191,0.217-0.239
					C171.475,104.179,171.668,104.558,171.665,105.015z"/>
				<path fill="#252110" d="M163.707,60.995c0.017,0.126,0.034,0.251,0.052,0.377c-0.249,0.298-0.498,0.596-0.747,0.894
					c-0.183,0.014-0.279-0.043-0.198-0.244C163.051,61.627,163.32,61.26,163.707,60.995z"/>
				<path fill="#212120" d="M153.285,129.216c-0.178,0.076-0.356,0.151-0.534,0.227c-0.428,0.022-0.811-0.042-0.981-0.513
					C152.275,129.025,152.78,129.12,153.285,129.216z"/>
				<path fill="#323029" d="M148.167,87.135c0.318,0.064,0.636,0.129,0.954,0.193c0.117,0.09,0.233,0.179,0.35,0.269
					C148.847,87.978,148.43,87.774,148.167,87.135z"/>
				<path fill="#121212" d="M148.462,79.938c-0.192,0.001-0.383,0.002-0.575,0.003c-0.295-0.161-0.498-0.397-0.588-0.725
					c0.036-0.156,0.11-0.273,0.287-0.29c0.335,0.101,0.53,0.422,0.855,0.541c0.088,0.047,0.165,0.109,0.231,0.184
					C148.716,79.83,148.651,79.93,148.462,79.938z"/>
				<path fill="#545247" d="M147.681,85.71c0.011,0.341,0.022,0.682,0.032,1.024c-0.651-0.403-0.598-0.924-0.249-1.494
					C147.659,85.34,147.55,85.581,147.681,85.71z"/>
				<path fill="#050505" d="M153.784,114.965c-0.045,0.07-0.05,0.144-0.016,0.22c-0.577-0.625-0.155-1.355-0.213-2.035
					c0.244,0.19,0.132,0.492,0.23,0.728C154.076,114.241,154.066,114.604,153.784,114.965z"/>
				<path fill="#322825" d="M169.342,95.252c-0.482-0.376-0.663-0.895-0.703-1.481C169.247,94.087,169.33,94.652,169.342,95.252z"/>
				<path fill="#1F1D1C" d="M152.395,107.108c0.079,0.172,0.158,0.344,0.237,0.516c0.004,0.132,0.007,0.264,0.011,0.396
					c0.058,0.059,0.072,0.111,0.042,0.154c-0.028,0.04-0.054,0.06-0.079,0.06c-0.016,0.119-0.032,0.239-0.048,0.358
					C151.679,108.187,152.544,107.592,152.395,107.108z"/>
				<path fill="#272621" d="M147.984,82.949c0.077,0.173,0.154,0.346,0.231,0.52c-0.116,0.316,0.212,0.872-0.476,0.879
					C147.821,83.881,147.902,83.415,147.984,82.949z"/>
				<path fill="#353535" d="M147.3,75.588c-0.098-0.106-0.195-0.212-0.293-0.318c0.113-0.361,0.26-0.685,0.719-0.681
					c0,0-0.018-0.029-0.018-0.029C147.998,75.071,147.793,75.387,147.3,75.588z"/>
				<path fill="#070501" d="M162.814,62.022c0.066,0.081,0.132,0.162,0.198,0.244c0.01,0.253-0.209,0.58-0.299,0.54
					c-0.275-0.123-0.359-0.441-0.376-0.75c-0.105-0.249,0.02-0.287,0.228-0.25C162.648,61.878,162.731,61.95,162.814,62.022z"/>
				<path fill="#293337" d="M171.182,111.762c-0.321-0.394,0.061-0.769,0.032-1.155c0.244-0.143,0.301,0.084,0.41,0.207
					C171.614,111.194,171.439,111.497,171.182,111.762z"/>
				<path fill="#2C271B" d="M162.566,61.806c-0.076,0.083-0.152,0.167-0.228,0.25c-0.293-0.36-0.527-0.73-0.217-1.198
					C162.424,61.101,162.511,61.446,162.566,61.806z"/>
				<path fill="#403B27" d="M154.185,59.652c0.102,0.109,0.205,0.218,0.307,0.327c-0.175,0.287-0.35,0.575-0.526,0.862
					c-0.073-0.069-0.146-0.137-0.219-0.206C153.739,60.238,153.913,59.923,154.185,59.652z"/>
				<path fill="#0D0D0D" d="M152.607,60.598c-0.138-0.118-0.276-0.235-0.414-0.353c-0.236,0.026-0.362-0.054-0.303-0.313
					c0.726-0.643,0.625,0.294,0.917,0.48C152.77,60.506,152.704,60.568,152.607,60.598z"/>
				<path fill="#252120" d="M156.563,94.1c-0.082-0.063-0.164-0.126-0.246-0.189c-0.02-0.497,0.436-0.425,0.7-0.583
					c0.06,0.374,0.014,0.726-0.218,1.038C156.661,94.331,156.643,94.188,156.563,94.1z"/>
				<path fill="#282828" d="M155.605,122.61c-0.021-0.082-0.073-0.132-0.154-0.152c0.042-0.403,0.546-0.179,0.66-0.485
					c0.307,0.237,0.163,0.585,0.218,0.884c-0.039,0.029-0.077,0.058-0.116,0.088C155.982,122.887,155.74,122.845,155.605,122.61z"/>
				<path fill="#050503" d="M147.681,85.71c-0.072-0.157-0.145-0.313-0.217-0.47c0.06-0.251-0.061-0.566,0.254-0.728
					C148.207,84.927,147.588,85.308,147.681,85.71z"/>
				<path fill="#2C281F" d="M152.607,60.598c0.066-0.062,0.133-0.124,0.199-0.187c0.275,0.151,0.398,0.412,0.501,0.688
					c-0.082,0.077-0.165,0.154-0.247,0.232C152.823,61.14,152.639,60.916,152.607,60.598z"/>
				<path fill="#403F38" d="M151.89,59.932c0.101,0.104,0.202,0.209,0.303,0.313c-0.007,0.074-0.026,0.145-0.057,0.212
					c-0.199,0.16-0.118,0.561-0.491,0.572C151.163,60.537,151.722,60.278,151.89,59.932z"/>
				<path fill="#322B0E" d="M156.773,59.925c-0.001,0.075-0.001,0.15,0,0.225c-0.245,0.146-0.324,0.498-0.66,0.53
					c-0.101-0.46,0.184-0.723,0.496-0.972C156.731,59.729,156.789,59.799,156.773,59.925z"/>
				<path fill="#020100" d="M169.771,97.349c0.068-0.152,0.135-0.303,0.203-0.455c0.023,0.226,0.046,0.451,0.07,0.677
					c0.125,0.21,0.088,0.434,0.058,0.658c-0.08,0.089-0.178,0.127-0.297,0.108C169.489,98.018,169.334,97.693,169.771,97.349z"/>
				<path fill="#2B281C" d="M166.735,82.02c-0.074,0.082-0.149,0.164-0.223,0.246c-0.147-0.324-0.295-0.648-0.442-0.972
					C166.704,81.159,166.673,81.632,166.735,82.02z"/>
				<path fill="#152226" d="M155.152,115.912c0.103-0.089,0.206-0.178,0.308-0.267c0.37-0.149,0.75-0.327,0.84,0.303
					c-0.074,0.075-0.149,0.151-0.223,0.226C155.769,116.087,155.46,115.999,155.152,115.912z"/>
				<path fill="#1C1B17" d="M166.305,83.657c0.061,0.068,0.122,0.136,0.184,0.204c-0.126,0.448-0.373,0.745-0.888,0.701
					c-0.018-0.042-0.026-0.086-0.024-0.132C165.819,84.173,166.062,83.915,166.305,83.657z"/>
				<path fill="#141110" d="M167.212,92.296c0.005-0.093,0.01-0.186,0.016-0.28c0.409,0.223,0.809,0.454,0.902,0.971
					C167.678,92.95,167.44,92.629,167.212,92.296z"/>
				<path fill="#202020" d="M169.838,98.278c0.045-0.011,0.09-0.024,0.134-0.039c0.236,0.083,0.109,0.343,0.233,0.481
					c0.093,0.357-0.073,0.496-0.412,0.487c0,0-0.008,0.004-0.008,0.004c-0.147-0.133-0.341-0.234-0.316-0.48
					C169.525,98.525,169.612,98.345,169.838,98.278z"/>
				<path fill="#505050" d="M154.684,97.675c0.022,0.055,0.017,0.107-0.014,0.157c-0.811-0.194-0.198-0.675-0.207-1.032
					C154.797,97.026,154.586,97.389,154.684,97.675z"/>
				<path fill="#112730" d="M153.109,109.422c0.078-0.095,0.156-0.19,0.234-0.284c0.498,0.179,0.669,0.494,0.41,0.987
					c-0.11,0.009-0.221,0.019-0.331,0.028C153.317,109.909,153.213,109.665,153.109,109.422z"/>
				<path fill="#000A0D" d="M171.624,110.814c-0.137-0.069-0.273-0.138-0.41-0.207c-0.001-0.09-0.001-0.18-0.002-0.27
					c0.222-0.168,0.344-0.502,0.711-0.428C171.823,110.211,171.724,110.512,171.624,110.814z"/>
				<path fill="#050403" d="M153.014,105.921c-0.079-0.093-0.159-0.185-0.238-0.278c-0.02-0.423,0.192-0.718,0.522-0.948
					C153.203,105.104,153.109,105.513,153.014,105.921z"/>
				<path d="M156.773,59.925c-0.055-0.073-0.109-0.145-0.164-0.218c0.05-0.188,0.173-0.377,0.356-0.332
					c0.246,0.061,0.285,0.305,0.243,0.543C157.063,59.921,156.918,59.923,156.773,59.925z"/>
				<path d="M171.191,103.838c-0.072,0.08-0.144,0.159-0.217,0.239c-0.091-0.219-0.181-0.439-0.272-0.658
					c-0.096-0.105-0.088-0.202,0.023-0.291C171.044,103.257,171.144,103.53,171.191,103.838z"/>
				<path fill="#080808" d="M159.557,131.082c-0.166,0.067-0.331,0.135-0.497,0.202c-0.253-0.011-0.513-0.005-0.688-0.24
					c0.046-0.174,0.157-0.285,0.328-0.338C159.041,130.705,159.367,130.738,159.557,131.082z"/>
				<path d="M156.324,89.64c0.153-0.071,0.307-0.142,0.46-0.213c0.31,0.024,0.626,0.042,0.463,0.503
					C156.939,89.833,156.631,89.737,156.324,89.64z"/>
				<path fill="#100F0D" d="M149.856,60.679c-0.305-0.179-0.278-0.477-0.275-0.767c0.322,0.181,0.636,0.369,0.691,0.785
					C150.134,60.691,149.995,60.685,149.856,60.679z"/>
				<path fill="#101314" d="M152.351,125.877c-0.195,0.254-0.39,0.509-0.585,0.763c-0.111,0.12-0.216,0.114-0.313-0.018
					C151.67,126.275,151.758,125.771,152.351,125.877z"/>
				<path d="M171.911,107.103c0.07-0.088,0.14-0.176,0.209-0.264c0.337,0.145,0.239,0.44,0.242,0.701
					c-0.07,0.157-0.139,0.314-0.209,0.471C172.073,107.708,171.992,107.405,171.911,107.103z"/>
				<path fill="#E2CB71" d="M151.646,61.029c0.164-0.191,0.327-0.381,0.491-0.572c-0.039,0.341,0.143,0.794-0.436,0.863
					c-0.014-0.107-0.028-0.213-0.042-0.32C151.659,61,151.646,61.029,151.646,61.029z"/>
				<path fill="#2D1D1A" d="M170.137,102.469c-0.215-0.194-0.356-0.42-0.315-0.725c0.453,0.026,0.556,0.356,0.623,0.717
					C170.345,102.576,170.243,102.578,170.137,102.469z"/>
				<path d="M155.391,60.859c-0.067,0.079-0.135,0.158-0.202,0.237c-0.1-0.214-0.2-0.428-0.301-0.643
					c0.07-0.087,0.14-0.175,0.21-0.262C155.196,60.413,155.294,60.636,155.391,60.859z"/>
				<path fill="#030200" d="M166.266,74.803c-0.067-0.072-0.134-0.143-0.202-0.215c-0.274-0.323,0.005-0.618,0.049-0.924
					c0.074,0.164,0.148,0.328,0.222,0.492C166.312,74.372,166.289,74.588,166.266,74.803z"/>
				<path fill="#532920" d="M170.205,98.72c-0.077-0.16-0.155-0.32-0.233-0.48c0.024-0.223,0.048-0.446,0.072-0.669
					C170.256,97.932,170.255,98.322,170.205,98.72z"/>
				<path fill="#1E1412" d="M166.721,90.847c-0.067,0.082-0.134,0.164-0.201,0.246c-0.475-0.038-0.572-0.312-0.45-0.723
					c0,0,0.034-0.04,0.034-0.04C166.541,90.227,166.656,90.507,166.721,90.847z"/>
				<path d="M151.453,126.623c0.104,0.006,0.209,0.012,0.313,0.018c-0.114,0.225-0.229,0.45-0.343,0.675
					c-0.077-0.085-0.154-0.17-0.232-0.255C151.279,126.914,151.366,126.769,151.453,126.623z"/>
				<path fill="#1C272C" d="M170.649,112.415c-0.153-0.492,0-0.737,0.54-0.671C171.095,112.037,170.986,112.317,170.649,112.415z"/>
				<path fill="#030200" d="M166.579,70.878c0.071,0.16,0.141,0.321,0.212,0.481c-0.022,0.219-0.044,0.438-0.066,0.657
					c-0.245-0.178-0.121-0.464-0.202-0.69C166.541,71.176,166.56,71.027,166.579,70.878z"/>
				<path d="M158.633,130.863c-0.087,0.061-0.174,0.121-0.26,0.182c-0.19,0.009-0.346-0.049-0.444-0.223
					c0.013-0.112,0.026-0.223,0.038-0.335C158.323,130.374,158.55,130.49,158.633,130.863z"/>
				<path d="M170.137,102.469c0.103-0.003,0.205-0.006,0.308-0.009c0.092,0.223,0.356,0.374,0.281,0.667
					c-0.008,0.097-0.015,0.194-0.023,0.291C170.514,103.102,170.325,102.786,170.137,102.469z"/>
				<path d="M147.484,78.995c-0.061,0.074-0.123,0.147-0.184,0.221c-0.153-0.196-0.31-0.391-0.293-0.662
					c0.069-0.084,0.138-0.168,0.207-0.252C147.49,78.461,147.625,78.674,147.484,78.995z"/>
				<path fill="#FEFEFE" d="M155.056,81.106c-0.408-0.348-0.816-0.695-1.223-1.043c-0.175-0.015-0.245-0.147-0.314-0.28
					c-0.142-0.318-0.241-0.654-0.373-0.978c-0.04-0.097-0.07-0.196-0.097-0.298c-0.1-0.525-0.322-1.038-0.171-1.59
					c0.139-0.469,0.209-0.96,0.447-1.397c0.24-0.492,0.581-0.905,1.001-1.254c0.317-0.277,0.652-0.522,1.074-0.617l-0.023,0.016
					c0.709-0.65,1.586-0.444,2.416-0.477c0.45-0.01,0.854,0.151,1.25,0.341c0.257,0.132,0.561,0.212,0.625,0.559
					c-0.446,0.377-0.433,0.705-0.132,1.252c1.277,2.315,0.923,3.895-1.074,5.338c-0.154-0.019-0.019,0.23-0.046,0.077
					c-0.005-0.029,0.022-0.025,0.074-0.033c0.33-0.049,0.635-0.064,0.658,0.396c-0.247,0.415-0.7,0.408-1.088,0.535
					c-0.551,0.011-1.102,0.013-1.653-0.001C155.919,81.564,155.474,81.368,155.056,81.106z"/>
				<path fill="#FDFDFD" d="M147.484,78.995c-0.09-0.231-0.18-0.462-0.271-0.693c-0.249-0.914-0.205-1.818,0.087-2.714
					c0.249-0.298,0.456-0.612,0.408-1.028c0.33-0.019,0.495-0.277,0.695-0.483c0.179-0.277,0.424-0.478,0.712-0.631
					c0.395-0.198,0.833-0.246,1.252-0.365c0.334-0.01,0.667-0.017,1,0.005c0.435,0.116,0.844,0.297,1.242,0.505
					c0.134,0.113,0.267,0.226,0.401,0.339c-0.09,0.676-0.622,0.265-0.994,0.401c0.414,0.612,1.168,1.044,1.039,1.924
					c-0.001,0.114-0.007,0.226-0.016,0.34c-0.172,0.758-0.148,1.492,0.264,2.178l-0.015-0.031c0.095,0.806-0.413,0.977-1.058,1.008
					c-0.621,0.03-1.205-0.261-1.828-0.205c-0.663,0.026-1.339-0.111-1.987,0.145C147.882,79.759,147.808,79.21,147.484,78.995z"/>
				<path fill="#ECE9E8" d="M159.095,81.044c-0.375-0.461-0.783,0.161-1.289-0.089c1.073-0.845,2.135-1.704,2.2-3.14
					c0.062-1.376-0.723-2.464-1.446-3.551c0.286-0.398,0.737,0.327,1.007-0.153c0.089-0.132,0.192-0.143,0.307-0.033
					c0.293,0.288,0.586,0.576,0.88,0.864c0.331,0.557,0.691,1.101,0.762,1.769c0.021,0.524,0.073,1.05-0.08,1.565
					c-0.063,0.514-0.259,0.98-0.508,1.427c-0.327,0.511-0.751,0.928-1.244,1.278C159.494,81.063,159.313,81.233,159.095,81.044z"/>
				<path fill="#F0DB92" d="M153.752,79.732c0.027,0.11,0.053,0.221,0.08,0.331c-1.113,0.671-2.281,0.315-3.43,0.166
					c-0.955-0.124-1.787-0.087-2.026,1.09c-0.06-0.005-0.119-0.014-0.177-0.028c-0.01-0.47-0.149-0.965,0.263-1.353
					c0.077-0.075,0.153-0.151,0.23-0.226c0.377-0.468,0.882-0.385,1.383-0.324C151.292,79.593,152.533,79.552,153.752,79.732z"/>
				<path fill="#E1DDDD" d="M152.84,76.228c0.11-1.025-1.116-1.287-1.263-2.194c0.464-0.363,1.008,0.45,1.435-0.104
					c0.093,0.045,0.186,0.09,0.279,0.135c0.581,0.422,0.426,0.905,0.118,1.402C153.202,75.708,153.351,76.215,152.84,76.228z"/>
				<path fill="#242113" d="M153.372,75.514c0.088-0.489,0.225-0.981-0.081-1.448c0.336,0.078,0.66,0.289,1.021,0.094
					c0.129-0.003,0.175,0.057,0.139,0.181c-0.322,0.384-0.644,0.769-0.966,1.153L153.372,75.514z"/>
				<path fill="#332D12" d="M157.935,73.349c-0.876-0.085-1.721,0.082-2.558,0.318c0.111-0.727,0.729-0.556,1.187-0.669
					c0.421,0.165,0.864,0.021,1.292,0.094c0.077,0.039,0.115,0.09,0.113,0.154C157.966,73.314,157.955,73.349,157.935,73.349z"/>
				<path fill="#131002" d="M160.247,87.312c0.365-0.606,0.819-0.725,1.485-0.216c-0.49,0.313-0.978,0.399-1.472,0.472
					C160.125,87.49,160.12,87.404,160.247,87.312z"/>
				<path fill="#281406" d="M161.188,92.439c-0.13-0.193-0.339-0.204-0.54-0.232c0.647-0.136,1.295-0.272,1.942-0.408
					c0.17,0.081,0.326,0.171,0.249,0.405C162.334,92.601,161.812,92.877,161.188,92.439z"/>
				<path fill="#36290A" d="M151.636,82.551c-0.533,0.457-1.06,0.489-1.574,0C150.586,82.551,151.111,82.551,151.636,82.551z"/>
				<path fill="#1A1708" d="M161.4,76.709c-0.155-0.611-0.648-1.098-0.647-1.766c0.702,0.265,0.713,0.924,0.859,1.506
					C161.551,76.542,161.54,76.678,161.4,76.709z"/>
				<path fill="#3B3418" d="M159.095,81.044c0.16-0.052,0.319-0.105,0.479-0.157c0.103,0.027,0.17,0.093,0.206,0.192
					c-0.366,0.423-0.851,0.602-1.388,0.673c-0.091-0.074-0.237-0.089-0.261-0.237C158.453,81.358,158.774,81.201,159.095,81.044z"/>
				<path fill="#332D14" d="M160.764,79.699c0.154-0.466,0.309-0.931,0.463-1.397c0.2-0.061,0.307,0.043,0.378,0.212
					c-0.089,0.524-0.243,1.017-0.656,1.387C160.851,79.869,160.789,79.801,160.764,79.699z"/>
				<path fill="#131005" d="M160.764,79.699c0.062,0.067,0.124,0.135,0.186,0.202c-0.253,0.528-0.636,0.928-1.17,1.177
					c-0.069-0.064-0.137-0.128-0.206-0.192C159.971,80.491,160.368,80.095,160.764,79.699z"/>
				<path d="M158.132,81.514c0.087,0.079,0.174,0.158,0.261,0.237c-0.768,0.194-1.534,0.184-2.301-0.008
					c-0.032-0.213,0.015-0.335,0.262-0.228C156.946,81.515,157.539,81.515,158.132,81.514z"/>
				<path fill="#060501" d="M161.606,78.514c-0.126-0.071-0.252-0.142-0.378-0.212c0.252-0.51,0.133-1.06,0.172-1.594
					c0.071-0.087,0.142-0.174,0.213-0.26C161.75,77.137,161.733,77.826,161.606,78.514z"/>
				<path fill="#3E371C" d="M152.611,73.591c-0.487,0.146-0.86-0.097-1.228-0.359c0.025-0.157,0.177-0.173,0.276-0.249
					C152.056,73.061,152.525,73.027,152.611,73.591z"/>
				<path fill="#040300" d="M159.558,87.773c-0.388,0.076-0.776,0.152-1.163,0.228c-0.098-0.052-0.229-0.061-0.262-0.198
					c0.356-0.236,0.758-0.237,1.162-0.23C159.534,87.44,159.573,87.571,159.558,87.773z"/>
				<path fill="#312C13" d="M157.935,73.349c-0.007-0.073-0.017-0.146-0.029-0.219c0.008-0.043,0.016-0.087,0.025-0.13
					c0.437,0.032,0.879,0.054,1.174,0.453c0,0.052,0,0.104,0,0.156C158.715,73.522,158.325,73.436,157.935,73.349z"/>
				<path fill="#38331B" d="M156.354,81.515c-0.087,0.076-0.174,0.152-0.262,0.228c-0.433-0.069-0.894-0.093-1.035-0.637
					C155.556,81.029,155.946,81.301,156.354,81.515z"/>
				<path fill="#29271B" d="M150.3,73.202c-0.403,0.122-0.805,0.244-1.208,0.365c-0.094,0.005-0.149-0.04-0.164-0.133
					c-0.073-0.182,0.051-0.243,0.183-0.299c0.237-0.043,0.474-0.086,0.711-0.129C149.964,73.112,150.191,73.014,150.3,73.202z"/>
				<path fill="#060501" d="M150.3,73.202c-0.159-0.065-0.318-0.131-0.477-0.196c0.61-0.135,1.223-0.131,1.836-0.022
					c-0.092,0.083-0.184,0.166-0.276,0.249C151.022,73.222,150.661,73.212,150.3,73.202z"/>
				<path fill="#2F2A13" d="M154.45,74.34c-0.046-0.06-0.093-0.121-0.139-0.181c0.228-0.457,0.534-0.748,1.088-0.509
					C155.164,73.992,154.798,74.154,154.45,74.34z"/>
				<path fill="#301C07" d="M163.977,91.047c0.149,0.081,0.297,0.161,0.446,0.242c0.053,0.063,0.076,0.13,0.069,0.2
					c-0.006,0.072-0.017,0.108-0.031,0.109c-0.263,0.252-0.553,0.398-0.923,0.242c-0.062-0.06-0.086-0.123-0.072-0.19
					c0.014-0.068,0.03-0.102,0.048-0.102C163.639,91.353,163.713,91.112,163.977,91.047z"/>
				<path fill="#181307" d="M148.817,82.33c0.021-0.106,0.042-0.212,0.062-0.318c0.29,0.142,0.662,0.142,0.862,0.458
					c-0.272,0.453-0.545-0.019-0.805,0.036C148.883,82.457,148.843,82.398,148.817,82.33z"/>
				<path fill="#050401" d="M157.931,72.999c-0.003,0.045-0.012,0.088-0.024,0.131c-0.45-0.024-0.919,0.155-1.343-0.133
					C157.019,72.998,157.475,72.999,157.931,72.999z"/>
				<path fill="#050401" d="M159.558,87.773c-0.088-0.067-0.176-0.134-0.264-0.2c0.276-0.239,0.62-0.227,0.952-0.26
					c0.004,0.086,0.008,0.171,0.013,0.257C160.026,87.637,159.792,87.705,159.558,87.773z"/>
				<path fill="#2F2B1B" d="M159.105,73.609c-0.006-0.052-0.006-0.104-0.001-0.156c0.403,0.028,0.785,0.083,0.769,0.626
					c-0.102,0.011-0.205,0.022-0.307,0.033C159.413,73.943,159.259,73.776,159.105,73.609z"/>
				<path fill="#271306" d="M163.514,91.548c-0.005,0.065-0.007,0.131-0.006,0.196c0.006,0.554-0.314,0.412-0.623,0.292
					c-0.099-0.079-0.197-0.157-0.296-0.236C162.898,91.716,163.206,91.632,163.514,91.548z"/>
				<path d="M158.133,87.803c0.087,0.066,0.175,0.132,0.262,0.198c-0.217,0.026-0.434,0.052-0.65,0.078
					c-0.164-0.073-0.327-0.145-0.491-0.218C157.547,87.842,157.84,87.822,158.133,87.803z"/>
				<path fill="#F7F7F7" d="M158.633,130.863c-0.222-0.125-0.444-0.25-0.666-0.376c0.054-0.391-0.107-1.004,0.67-0.648
					c0.404-0.314,0.835-0.071,1.255-0.062c0.373,0.021,0.747,0.025,1.112,0.112c1.044,0.205,2.089,0.189,3.133,0.009
					c0.526-0.145,1.084-0.045,1.606-0.214c0.225-0.06,0.456-0.09,0.686-0.115c0.34-0.02,0.658-0.148,0.989-0.216
					c0.453-0.058,0.868-0.334,1.348-0.244c0.357,0.275,0.283,0.623,0.165,0.978c-0.29,0.369-0.685,0.488-1.135,0.475
					c-0.083,0.032-0.113,0.092-0.091,0.18c-0.624,0.167-1.266,0.242-1.896,0.378c-0.221,0.027-0.441,0.053-0.654-0.041
					c-1.866,0.178-3.733,0.277-5.599,0.005C159.249,131.009,158.941,130.936,158.633,130.863z"/>
				<path fill="#10191D" d="M167.447,124.985c0.152,0.157,0.304,0.314,0.456,0.47c0.053,0.043,0.074,0.098,0.061,0.165
					c0.095,0.179,0.013,0.288-0.147,0.364c-0.299,0.016-0.57-0.198-0.879-0.106c-0.258,0.041-0.515,0.058-0.764-0.048
					c-0.096-0.054-0.157-0.136-0.187-0.241c0.008-0.11,0.054-0.202,0.131-0.279C166.528,125.068,166.935,124.814,167.447,124.985z"
					/>
				<path fill="#2D2C2C" d="M165.823,131.023c0.598-0.291,1.228-0.374,1.883-0.283c-0.352,0.523-0.932,0.369-1.423,0.48
					C166.152,131.102,165.929,131.199,165.823,131.023z"/>
				<path fill="#030303" d="M168.821,130.038c-0.005-0.282,0.146-0.59-0.138-0.825c-0.216,0.098-0.308-0.009-0.344-0.209
					c0.055-0.105,0.14-0.174,0.251-0.213c0.18-0.028,0.337,0.017,0.466,0.148c0.201,0.538,0.261,1.058-0.184,1.517
					C168.762,130.328,168.745,130.189,168.821,130.038z"/>
				<path fill="#15262C" d="M167.76,125.916c0.068-0.099,0.135-0.197,0.203-0.296c0.32,0.356,0.482,0.79,0.618,1.237
					c-0.064,0.153-0.128,0.307-0.34,0.282C167.828,126.831,167.485,126.495,167.76,125.916z"/>
				<path fill="#030303" d="M169.055,128.94c-0.148-0.002-0.296-0.003-0.444-0.005c-0.263-0.312-0.293-0.668-0.2-1.048
					c0.068-0.18,0.159-0.334,0.385-0.328C168.883,128.019,168.969,128.479,169.055,128.94z"/>
				<path fill="#272626" d="M168.821,130.038c0.017,0.14,0.033,0.279,0.05,0.419c-0.339,0.229-0.676,0.489-1.075,0.104
					C168.138,130.386,168.48,130.212,168.821,130.038z"/>
				<path fill="#0D1A1F" d="M168.797,127.558c-0.068,0.089-0.135,0.177-0.203,0.266c-0.426-0.104-0.404-0.369-0.244-0.683
					c0.077-0.095,0.154-0.189,0.232-0.284C168.653,127.091,168.725,127.325,168.797,127.558z"/>
				<path d="M165.823,131.023c0.153,0.066,0.307,0.132,0.46,0.197c-0.215,0.021-0.431,0.041-0.646,0.062
					c-0.16-0.068-0.32-0.137-0.48-0.205C165.378,131.059,165.6,131.041,165.823,131.023z"/>
				<path fill="#C73B23" d="M164.414,91.516c0.01-0.076,0.013-0.152,0.009-0.228c0.125-0.326,0.372-0.522,0.687-0.645
					c0.32-0.091,0.64-0.182,0.96-0.273c0.15,0.241,0.3,0.482,0.45,0.723c-0.052,0.877-0.989,0.224-1.258,0.728
					c0.001,0.101-0.04,0.181-0.122,0.241c-0.21,0.049-0.374-0.046-0.527-0.172C164.506,91.787,164.428,91.668,164.414,91.516z"/>
				<path fill="#201A04" d="M165.538,82.026c-0.028-0.002,0.32-0.114,0.419,0.313c-0.64-0.015-0.341,0.671-0.666,0.891
					c-0.072-0.593-0.936-0.343-0.957-0.776C164.31,81.968,164.835,81.989,165.538,82.026z"/>
				<path fill="#009CDB" d="M153.753,110.125c-0.042-0.368-0.193-0.692-0.41-0.987c0.117-0.205,0.33-0.14,0.506-0.181
					c0.095-0.055,0.196-0.079,0.306-0.071c0.533,0.06,1.042,0.249,1.582,0.276c0.173,0.016,0.342,0.047,0.51,0.089
					c1.079,0.133,2.144,0.399,3.242,0.326c0.365,0.003,0.731,0.008,1.096,0.008c0.122-0.004,0.244,0.001,0.366,0.01
					c0.245,0.018,0.481,0.063,0.681,0.217c0.167,0.236,0.038,0.436-0.076,0.637c-0.485,0.605-0.31,1.276-0.19,1.941
					c0.081,0.294,0.014,0.608,0.12,0.89c0.041,0.062,0.058,0.13,0.048,0.196c0.103-0.116-0.04-0.191-0.051-0.293
					c-0.064-0.214-0.05-0.427-0.031-0.642c0.271-0.62-0.159-1.496,0.692-1.904c0.77-0.178,1.335,0.5,2.065,0.492
					c0.318,0.034,0.621,0.121,0.903,0.273c0.245,0.176,0.511,0.307,0.814,0.352c0.099,0.027,0.191,0.07,0.276,0.126
					c0.03,0.041,0.059,0.083,0.088,0.125c-0.698,1.374-1.937,2.008-3.473,2.495c0.918,0.399,1.378,0.995,1.599,1.946
					c0.097,0.416,1.124,0.223,1.713,0.107c0.606-0.119,1.185-0.3,1.774,0.023c-0.308,0.087-0.617,0.174-0.925,0.26
					c-1.716,0.071-3.432,0.16-5.151,0.024c-0.893-0.071-1.589-0.232-1.313-1.397c0.072-0.304,0.118-0.739-0.456-0.68
					c-0.132,0.123-0.286,0.143-0.454,0.102c-0.402-0.266-0.871-0.379-1.311-0.558c-0.534-0.24-1.11-0.391-1.588-0.748
					c-0.299-0.218-0.645-0.362-0.94-0.587c-0.514-0.513-1.213-0.885-1.318-1.712C154.217,110.896,153.985,110.51,153.753,110.125z"
					/>
				<path fill="#0096D3" d="M169.989,115.905c-0.369,0.163-0.669,0.503-1.127,0.435c1.008-0.875,0.605-2.09,0.721-3.272
					c0.33,0.332,0.066,0.778,0.391,0.993C169.978,114.676,169.983,115.291,169.989,115.905z"/>
				<path fill="#010100" d="M167.516,111.27c-0.101,0.381,0.118,0.644,0.335,0.908c-0.361,0.259-0.719,0.235-1.077-0.006
					c-0.123-0.167-0.298-0.179-0.483-0.166c0,0,0.025-0.07,0.025-0.07c-0.071-0.35,0.367-0.433,0.383-0.739
					c0.108-0.419,0.128-0.88,0.559-1.139c0.128-0.016,0.227,0.03,0.298,0.138C167.572,110.555,167.619,110.915,167.516,111.27z"/>
				<path fill="#009CDA" d="M166.774,112.171c0.359,0.002,0.718,0.004,1.077,0.006c0.166,0.046,0.702-0.222,0.359,0.275
					c-0.364,0.529-0.911,0.931-1.468,1.326C166.913,113.208,167.823,112.72,166.774,112.171z"/>
				<path fill="#19140B" d="M167.553,110.156c-0.094-0.01-0.188-0.019-0.282-0.029c-0.57-0.608-0.24-1.193,0.044-1.78
					c0.225-0.245,0.425-0.127,0.621,0.043c0.002,0.61,0.437,1.007,0.731,1.474c-0.166,0.07-0.333,0.14-0.499,0.21
					c-0.157,0.038-0.314,0.076-0.471,0.114C167.649,110.177,167.601,110.167,167.553,110.156z"/>
				<path fill="#008FC7" d="M168.399,110.154c0.91,0.125,1.855-0.193,2.744,0.215C170.232,110.242,169.286,110.579,168.399,110.154z
					"/>
				<path fill="#008FC7" d="M167.553,110.156c0.047,0.014,0.095,0.024,0.144,0.032c-0.046,0.363,0.122,0.762-0.181,1.082
					C167.529,110.898,167.541,110.527,167.553,110.156z"/>
				<path fill="#F04E28" d="M165.159,91.959c0.033-0.047,0.068-0.094,0.104-0.138c0.573,0.152,1.146,0.304,1.719,0.455
					c-0.41,0.406-0.984,0.016-1.466,0.317c0.332,1.001,0.848,1.939,1.115,2.987c0.281,1.104,0.124,1.805-1.085,2.13
					c0.981-0.114,1.927-0.011,2.819,0.15c1.132,0.205,1.037-0.343,0.894-1.042c-0.075-0.368-0.322-0.72,0.016-1.075
					c0.166,0.535,0.331,1.07,0.497,1.605c-0.233,0.328,0.021,0.621,0.066,0.929c-0.081,0.161-0.162,0.322-0.244,0.482
					c-0.21,0.142-0.391,0.015-0.579-0.058c-0.188-0.088-0.388-0.128-0.595-0.136c-0.33-0.012-0.66,0.007-0.99-0.016
					c-0.175-0.011-0.346-0.04-0.516-0.083c-0.631-0.194-1.28-0.089-1.92-0.115c-0.392,0.004-0.788-0.028-1.169,0.103
					c-0.497,0.041-0.894,0.445-1.417,0.4c-0.172-0.06-0.291-0.178-0.367-0.342c-0.058-0.308,0.066-0.564,0.23-0.808
					c0.703-0.683,0.386-1.664,0.712-2.456c0.072-0.319,0.188-0.622,0.333-0.914c0.174-0.323,0.339-0.649,0.405-1.016
					c0.061-0.267,0.171-0.51,0.348-0.721C164.329,92.211,164.774,92.137,165.159,91.959z"/>
				<path fill="#F04E28" d="M162.101,98.498c0.087,0.09,0.173,0.18,0.26,0.27c0.484,0.328,1.256,0.421,1.067,1.303
					c-0.135,0.622-0.013,1.266-0.164,1.886c-0.14,0.403-0.139,0.821-0.136,1.24c0.036,0.572-0.131,1.117-0.211,1.674
					c0.04,0.783-0.161,1.541-0.238,2.313c-0.019,0.827-0.035,1.654-0.582,2.35c-1.476,0.219-2.957,0.178-4.431,0.022
					c-0.569-0.06-1.131-0.156-1.705-0.122c-0.087-0.008-0.175-0.017-0.262-0.025c-0.575-0.291-1.174-0.485-1.83-0.448
					c0,0-0.022-0.005-0.022-0.005c-0.187-0.631-0.828-0.482-1.243-0.722c-0.009-0.075,0.004-0.146,0.038-0.214
					c0.361,0.057,0.601-0.044,0.636-0.454c0.184-2.143,1.16-3.982,2.329-5.707c0.921-1.359,0.783-2.938,1.158-4.407
					c0.417-1.635,0.749-3.291,1.118-4.938c1.101-0.025,2.203-0.051,3.305-0.076c0.592-0.023,1.164-0.132,1.697-0.404
					c0.242-0.023,0.504-0.005,0.623-0.291c0.347,0.105,0.594-0.189,0.906-0.228c0.099,0.109,0.198,0.217,0.297,0.326
					c-0.026,0.459-0.471,0.603-0.69,0.917c-0.302,0.201-0.388,0.55-0.566,0.836c-0.245,0.381-0.433,0.788-0.564,1.221
					c-0.117,0.315-0.204,0.636-0.185,0.978c-0.012,0.097-0.042,0.189-0.085,0.276c-0.248,0.323-0.234,0.728-0.336,1.097
					C162.183,97.606,162.015,98.034,162.101,98.498z"/>
				<path fill="#150F0A" d="M155.404,98.758c-0.33-0.395,0.126-0.643,0.181-0.966c0.076-0.284-0.07-0.734,0.489-0.661
					C155.88,97.685,156.151,98.43,155.404,98.758z"/>
				<path fill="#382916" d="M154.992,101.121c-0.035-0.178-0.07-0.357-0.105-0.535c0.437-0.351-0.025-1.166,0.705-1.367
					c-0.129,0.637-0.009,1.35-0.567,1.857C155.024,101.075,154.992,101.121,154.992,101.121z"/>
				<path d="M156.069,96.845c-0.467-0.399,0.059-0.748,0.057-1.124c0.061-0.069,0.122-0.073,0.185-0.002
					C156.347,96.12,156.316,96.506,156.069,96.845z"/>
				<path fill="#050201" d="M156.311,95.72c-0.062,0.002-0.123,0.002-0.185,0.002c0.083-0.302,0.166-0.605,0.249-0.907
					c0.223-0.029,0.298,0.055,0.205,0.268C156.541,95.316,156.615,95.598,156.311,95.72z"/>
				<path fill="#241510" d="M156.58,95.082c-0.068-0.089-0.137-0.179-0.205-0.268c0.063-0.238,0.126-0.476,0.189-0.714
					c0.079,0.089,0.158,0.178,0.236,0.267C156.793,94.625,156.792,94.886,156.58,95.082z"/>
				<path fill="#D5342C" d="M168.667,109.864c-0.898-0.099-1.09-0.603-0.794-1.386c-0.163-0.348-0.266-0.704-0.166-1.091
					c0.186-0.516,0.113-1.072,0.235-1.598c0.107-0.335,0.154-0.679,0.145-1.031c0.007-0.352,0.006-0.706,0.125-1.044
					c0.039-0.109,0.092-0.212,0.154-0.31c0.331-0.41,0.047-1.038,0.494-1.408c0.109,0.032,0.28,0.032,0.317,0.102
					c1.05,1.999,1.987,4.041,2.232,6.325c0.063,0.587-0.17,0.941-0.776,1.066c-0.364,0.075-0.71,0.238-1.065,0.361
					C169.268,109.855,168.967,109.86,168.667,109.864z"/>
				<path fill="#311E07" d="M168.611,98.309c0.214-0.044,0.394-0.002,0.513,0.199c0.121,0.312-0.009,0.614-0.036,0.921
					c-0.006,0.095-0.012,0.189-0.018,0.284c-0.484,0.271-0.093,0.846-0.408,1.176c-0.283-0.162-0.349-0.457-0.45-0.731
					c-0.108-0.396-0.119-0.798-0.081-1.205c0.015-0.114,0.046-0.224,0.09-0.331C168.303,98.46,168.457,98.384,168.611,98.309z"/>
				<path fill="#1B0905" d="M168.425,100.138c0.255,0.195,0.17,0.496,0.236,0.75c0.005,0.293,0.01,0.587,0.015,0.88
					c0.07,0.251,0.116,0.5-0.057,0.732c-0.445-0.034-0.451-0.392-0.521-0.704c-0.031-0.325-0.028-0.65-0.004-0.975
					C168.128,100.557,168.182,100.301,168.425,100.138z"/>
				<path fill="#EB4C27" d="M168.589,102.437c0.029-0.223,0.059-0.446,0.088-0.669c0.061,0.076,0.123,0.152,0.184,0.228
					c-0.108,0.535,0.243,1.148-0.275,1.613C168.303,103.218,168.274,102.827,168.589,102.437z"/>
				<path fill="#040403" d="M149.758,63.173c-0.223-0.68-0.23-1.36,0.002-2.04C149.759,61.813,149.759,62.493,149.758,63.173z"/>
				<path fill="#202020" d="M148.928,73.434c0.07,0.025,0.125,0.07,0.164,0.133c-0.229,0.17-0.459,0.34-0.688,0.51
					c-0.074-0.142-0.148-0.285-0.222-0.427C148.494,73.796,148.689,73.54,148.928,73.434z"/>
				<path fill="#03151C" d="M158.383,128.937c-0.094-0.008-0.188-0.016-0.282-0.024c0,0-0.002-0.064-0.002-0.064l0.059-0.026
					c-0.8-0.576-1.753,0.021-2.582-0.335c-0.455-0.021-0.91-0.042-1.365-0.063c-0.12-0.167-0.108-0.327,0.027-0.479
					c0.637-0.228,1.277,0.01,1.917,0.002c1.69-0.02,1.69,0.003,2.101-1.398c0.576-0.092,0.791,0.389,1.114,0.7
					C159.469,128.062,158.944,128.51,158.383,128.937z"/>
				<path fill="#363433" d="M154.325,129.669c0.28-0.051,0.601,0.037,0.818-0.234c0.854,0.007,1.707,0.014,2.561,0.02
					c-0.373,0.443-1.007-0.043-1.382,0.389C155.649,129.87,154.971,129.954,154.325,129.669z"/>
				<path fill="#21363F" d="M151.669,127.674c0,0-0.025-0.01-0.025-0.01c0.154-0.046,0.309-0.093,0.463-0.139
					c0.544-0.153,1.049-0.129,1.459,0.323c0.027,0.389-0.35,0.205-0.496,0.349C152.578,128.091,152.02,128.16,151.669,127.674z"/>
				<path fill="#171B1D" d="M155.577,128.488c0.858,0.129,1.803-0.416,2.581,0.334C157.342,128.371,156.407,128.834,155.577,128.488
					z"/>
				<path fill="#000203" d="M153.07,128.197c0.157-0.074,0.314-0.148,0.47-0.222c0.251-0.166,0.479-0.165,0.674,0.089
					c-0.001,0.12-0.002,0.241-0.003,0.361C153.79,128.557,153.473,128.16,153.07,128.197z"/>
				<path fill="#DDA927" d="M160.033,116.577c0.166,0.172,0.331,0.344,0.497,0.516c0.005,0.064,0.01,0.128,0.015,0.192
					c-0.347,1.775-0.174,3.566-0.167,5.353c-0.188,0.668-0.832,0.502-1.278,0.701c-0.33,0.059-0.652,0.068-0.936-0.153
					c-0.068-0.118-0.074-0.24-0.021-0.365c0.767-1.574,0.298-3.241,0.344-4.867c0.012-0.42-0.404-0.499-0.736-0.612
					c-0.469-0.159-0.986-0.281-1.02-0.927c0.176-0.226,0.427-0.285,0.692-0.315c0.392-0.024,0.783-0.014,1.169,0.066
					C159.052,116.372,159.617,116.214,160.033,116.577z"/>
				<path fill="#EFEFEF" d="M160.97,117.121c0.828-0.075,1.246,0.147,1.18,1.134c-0.1,1.493-0.023,2.998-0.029,4.498
					c-0.001,0.365,0.117,0.812-0.468,0.871c-0.644-0.142-0.711-0.738-0.949-1.201c-0.143-1.45-0.05-2.903-0.061-4.355
					C160.641,117.718,160.702,117.382,160.97,117.121z"/>
				<path fill="#F6F6F6" d="M161.679,123.882c0.218,0.01,0.435,0.02,0.653,0.03c0.38-0.13,0.729,0.098,1.1,0.09
					c0.494,0.015,0.961,0.184,1.447,0.245c0.28,0.049,0.539,0.146,0.763,0.325c0.232,0.236,0.526,0.442,0.411,0.847l0.027,0.067
					c-0.634,0.665-1.427,0.524-2.21,0.439c-0.594-0.191-1.238-0.198-1.813-0.47c-0.445-0.224-0.663-0.582-0.639-1.083
					C161.442,124.175,161.511,124.002,161.679,123.882z"/>
				<path fill="#008DBE" d="M159.689,114.777c0.124,0.002,0.248,0.004,0.372,0.006c0.278,0.397,0.072,0.854,0.159,1.274
					c-0.017,0.151-0.099,0.204-0.244,0.162c-0.349-0.186-0.729-0.205-1.115-0.221c-1.515-0.061-2.462-0.892-2.884-2.512
					c0.255-0.38,0.501-0.054,0.75,0.01c0.452,0.315,0.97,0.493,1.474,0.698C158.663,114.475,159.215,114.527,159.689,114.777z"/>
				<path fill="#3F3407" d="M160.97,117.121c-0.002,1.81-0.003,3.62-0.005,5.43c0.07,0.121,0.075,0.245,0.016,0.373
					c-0.13,0.058-0.255,0.051-0.378-0.023c-0.167-0.136-0.235-0.328-0.303-0.522c-0.043-1.762-0.134-3.525,0.112-5.28
					c0.039-0.014,0.078-0.016,0.118-0.006C160.677,117.102,160.824,117.112,160.97,117.121z"/>
				<path fill="#7F7A52" d="M162.373,123.563c-0.001-2.063-0.002-4.125-0.003-6.188c0.08-0.139,0.179-0.153,0.296-0.043
					c0.077,0.104,0.131,0.22,0.163,0.346c0.057,0.253,0.073,0.51,0.07,0.769c-0.02,1.571,0.059,3.143-0.04,4.713
					c-0.027,0.131-0.078,0.251-0.152,0.362C162.608,123.645,162.497,123.658,162.373,123.563z"/>
				<path d="M160.932,122.904c0.011-0.118,0.022-0.235,0.034-0.353c0.408,0.243,0.427,0.736,0.689,1.073
					c0.008,0.086,0.016,0.172,0.025,0.257c-0.02,0.138-0.04,0.276-0.059,0.414c-0.137,0.168-0.021,0.524-0.387,0.523
					c-0.089-0.042-0.162-0.103-0.219-0.184c-0.1-0.166-0.162-0.343-0.159-0.54c0.029-0.221,0.085-0.44,0.051-0.667
					C160.884,123.252,160.826,123.074,160.932,122.904z"/>
				<path fill="#00131A" d="M160.018,116.092c0.069-0.001,0.136-0.012,0.202-0.034c-0.062,0.173-0.124,0.346-0.187,0.519
					c-0.482-0.05-0.963-0.1-1.445-0.15c0.169-0.28,0.462-0.35,0.745-0.44C159.574,115.935,159.804,115.962,160.018,116.092z"/>
				<path fill="#201D12" d="M162.373,123.563c0.07,0.026,0.141,0.044,0.214,0.056c0.449-0.07,0.907-0.173,1.21,0.317
					c-0.034,0.322-0.36,0.183-0.51,0.323c-0.4,0.11-0.661-0.165-0.956-0.347C162.345,123.795,162.359,123.679,162.373,123.563z"/>
				<path fill="#1D1804" d="M166.778,117.111c-0.079,0.07-0.158,0.14-0.237,0.21c-0.14,0.124-0.293,0.221-0.48,0.257
					c-0.373,0.049-0.74,0.049-1.082-0.139c-0.113-0.083-0.143-0.19-0.092-0.32C165.517,117.117,166.147,117.114,166.778,117.111z"/>
				<path fill="#020100" d="M164.886,117.12c0.011,0.053,0.016,0.107,0.015,0.162c-0.374,0.426-0.818,0.357-1.277,0.181
					c-0.133-0.079-0.168-0.189-0.104-0.33C163.976,117.128,164.431,117.124,164.886,117.12z"/>
				<path fill="#0A0902" d="M163.521,117.132c-0.004,0.051-0.005,0.102-0.005,0.152c-0.296,0.343-0.626,0.278-0.968,0.081
					l-0.09-0.007c0,0-0.088,0.017-0.088,0.017C162.669,116.895,163.122,117.142,163.521,117.132z"/>
				<path fill="#009CDA" d="M154.215,128.064c-0.225-0.03-0.449-0.06-0.674-0.089c-0.478-0.15-0.956-0.3-1.434-0.449
					c0.721-1.493,2.21-2.207,3.338-3.286c0.309-0.105,0.582,0.434,0.907,0.051c0.178-0.191,0.394-0.191,0.623-0.125
					c0.281,0.169,0.569,0.319,0.916,0.284c0.516,0.005,1.031,0,1.546-0.004c0.295,0.008,0.582-0.046,0.867-0.113
					c0.249-0.036,0.481-0.004,0.68,0.165c0.062,0.582-0.362,0.663-0.775,0.757c-0.352,0.052-0.728-0.045-1.057,0.162
					c-0.078,0.059-0.159,0.115-0.238,0.172c-0.198,0.141-0.353,0.307-0.35,0.572c-0.012,0.147-0.041,0.286-0.174,0.377
					c-0.045,0.14-0.162,0.305-0.125,0.417c0.423,1.269,0.429,1.29-0.889,1.267C156.322,128.203,155.269,128.119,154.215,128.064z"/>
				<path fill="#009AD8" d="M160.018,116.092c-0.233,0.037-0.466,0.073-0.699,0.11c-0.557,0.153-1.125,0.037-1.686,0.073
					c-0.425-0.117-0.907,0.165-1.301-0.182c0.027-0.057,0.016-0.105-0.031-0.146c-0.179-0.383-0.553-0.221-0.84-0.302
					c-0.387-0.283-0.936-0.228-1.274-0.611c-0.424-0.981,0.168-2.011-0.145-2.997c-0.03-0.192-0.078-0.389,0.142-0.512
					c0.616,0.314,0.996,0.899,1.515,1.324c0.049,0.234,0.579,0.139,0.375,0.547c0.796,1.164,1.291,2.738,3.235,2.31
					C159.606,115.641,159.939,115.675,160.018,116.092z"/>
				<path fill="#FEF2A3" d="M156.56,122.642c-0.016-1.774-0.032-3.547-0.048-5.321c0.07-0.006,0.14-0.012,0.211-0.019
					c0.171,0.099,0.325,0.24,0.36,0.425c0.316,1.671,0.611,3.345-0.133,4.989C156.806,122.768,156.675,122.743,156.56,122.642z"/>
				<path fill="#343123" d="M156.56,122.642c0.063,0.018,0.128,0.023,0.194,0.016c0.441,0.161,1.004-0.258,1.364,0.286
					c0.018,0.057,0.048,0.107,0.089,0.151c-0.177,0.291-0.474,0.363-0.775,0.432c-0.469-0.04-1.018,0.057-1.116-0.635
					c0,0,0.014-0.035,0.014-0.035C156.406,122.786,156.483,122.714,156.56,122.642z"/>
				<path fill="#3D330A" d="M156.331,116.093c0.386-0.074,0.762-0.037,1.128,0.107c0.081,0.025,0.111,0.058,0.092,0.099
					c-0.021,0.044-0.043,0.066-0.067,0.066c-0.236,0.009-0.473,0.018-0.709,0.026c-0.167,0.281,0.13,0.663-0.196,0.91
					c0,0-0.067,0.02-0.067,0.02C156.179,116.952,156.36,116.507,156.331,116.093z"/>
				<path fill="#F9CC1F" d="M166.072,117.331c0.156-0.003,0.313-0.006,0.469-0.009c0.01,1.399,0.02,2.797,0.03,4.196
					c-0.021,0.688-0.042,1.376-0.064,2.063c-0.132,0.093-0.271,0.106-0.418,0.037c-0.257-0.216-0.334-0.519-0.346-0.828
					c-0.063-1.539-0.056-3.078-0.005-4.618C165.748,117.857,165.853,117.568,166.072,117.331z"/>
				<path fill="#7CB2D5" d="M158.383,128.937c0.208-0.638,0.836-1.048,0.945-1.739c-0.021-0.105,0.005-0.197,0.077-0.276
					c0.218-0.201,0.449-0.389,0.622-0.634c0.061-0.077,0.132-0.144,0.21-0.203c0.264-0.108,0.531-0.213,0.747-0.413
					c0.079-0.064,0.164-0.117,0.253-0.165c0.24-0.091,0.477-0.247,0.729-0.032c0.043,0.1,0.061,0.204,0.053,0.313
					c-0.918,1.318-2.081,2.431-3.075,3.686c-0.107,0.038-0.213,0.035-0.315-0.016C158.356,129.375,158.373,129.154,158.383,128.937z
					"/>
				<path fill="#16272F" d="M158.631,129.458c0.085-0.013,0.17-0.026,0.255-0.039c0.526-0.142,1.03-0.18,1.422,0.303
					c-0.01,0.355-0.346,0.205-0.507,0.326c-0.388-0.07-0.777-0.14-1.165-0.21C158.635,129.712,158.633,129.585,158.631,129.458z"/>
				<path fill="#00131A" d="M155.598,112.915c-0.591-0.341-1.011-0.857-1.415-1.39c0.089-0.081,0.177-0.163,0.266-0.244
					c0.411,0.595,1.122,0.926,1.422,1.618C155.786,113.001,155.695,113.002,155.598,112.915z"/>
				<path fill="#69C3F1" d="M154.041,112.037c0.373,0.983,0.224,1.992,0.145,2.997c-0.072,0.003-0.133-0.021-0.185-0.07
					c-0.214-0.404-0.148-0.817-0.043-1.232c-0.006-0.43-0.011-0.861-0.017-1.291C153.975,112.306,154.008,112.171,154.041,112.037z"
					/>
				<path fill="#D84624" d="M169.088,99.429c-0.429-0.324-0.132-0.62,0.036-0.921c0.157,0.084,0.313,0.168,0.47,0.252
					c0.063,0.15,0.127,0.3,0.19,0.45C169.552,99.283,169.32,99.356,169.088,99.429z"/>
				<path fill="#DED9D7" d="M166.052,125.419c-0.152-0.221-0.304-0.442-0.456-0.663c-0.118-0.334,0.177-0.426,0.344-0.594
					c0.216-0.23,0.549-0.192,0.799-0.346c0.201-0.001,0.401-0.001,0.602-0.002c-0.208,0.412,0.355,0.754,0.106,1.17
					C166.982,125.129,166.517,125.274,166.052,125.419z"/>
				<path fill="#383429" d="M166.738,123.816c-0.226,0.167-0.452,0.335-0.678,0.502c-0.093,0.063-0.189,0.072-0.29,0.021
					c-0.141-0.089-0.232-0.208-0.234-0.382c0.134-0.423,0.533-0.206,0.792-0.328c0.061-0.01,0.12-0.026,0.177-0.047
					C166.584,123.659,166.661,123.738,166.738,123.816z"/>
				<path fill="#81B3D4" d="M153.958,113.732c0.014,0.411,0.029,0.821,0.043,1.232c0,0-0.108,0.014-0.108,0.014
					s-0.109-0.012-0.109-0.012c0.001-0.362,0.001-0.725,0.001-1.087C153.846,113.833,153.904,113.784,153.958,113.732z"/>
				<path fill="#EEEEEF" d="M156.315,122.894c0.317,0.347,0.754,0.36,1.174,0.417c0.57-0.147,1.158,0.017,1.727-0.101
					c0.108-0.005,0.212,0.02,0.307,0.068c0.058,0.271,0.078,0.53,0.389,0.703c0.276,0.153,0.162,0.376-0.103,0.502
					c-0.119,0.024-0.236,0.036-0.357,0.038c-0.843-0.077-1.713,0.202-2.525-0.213c-0.192-0.006-0.384-0.011-0.576-0.017
					c-0.245-0.408-0.912-0.353-1.011-0.921c0.088-0.253,0.176-0.506,0.264-0.759C155.948,122.439,156.084,122.785,156.315,122.894z"
					/>
				<path fill="#050505" d="M149.976,79.497c-0.428,0.072-0.856,0.143-1.284,0.215c-0.092-0.007-0.184-0.014-0.275-0.021
					c0.487-0.697,1.181-0.503,1.846-0.428C150.287,79.487,150.218,79.597,149.976,79.497z"/>
				<path fill="#20201E" d="M149.976,79.497c0.096-0.078,0.191-0.156,0.287-0.235c0.672,0.049,1.354,0.041,2.012,0.164
					c0.625,0.116,0.852-0.197,1.014-0.684c0.154,0.329,0.308,0.659,0.463,0.989C152.481,79.855,151.22,79.811,149.976,79.497z"/>
				<path fill="#151515" d="M158.747,77.465c-0.061,0.336-0.229,0.578-0.599,0.561c-0.365-0.017-0.552-0.264-0.541-0.605
					c0.011-0.343,0.196-0.559,0.584-0.544C158.579,76.89,158.705,77.133,158.747,77.465z"/>
				<path fill="#232323" d="M153.304,78.773c-0.99-0.618-0.4-1.528-0.429-2.323c0.469,0.041,0.217,0.362,0.225,0.582
					C153.168,77.612,153.236,78.193,153.304,78.773z"/>
				<path fill="#323131" d="M153.1,77.032c-0.075-0.194-0.15-0.388-0.225-0.582c-0.024-0.072-0.036-0.146-0.035-0.222
					c0.28-0.162,0.084-0.678,0.532-0.715c0.033-0.032,0.07-0.039,0.112-0.02C153.356,76.006,153.228,76.519,153.1,77.032z"/>
				<path fill="#0F0F0F" d="M151.205,77.221c-0.033,0.364-0.254,0.572-0.6,0.561c-0.343-0.011-0.569-0.225-0.563-0.598
					c0.006-0.381,0.238-0.557,0.596-0.55C151.004,76.64,151.198,76.845,151.205,77.221z"/>
				<path fill="#1B2529" d="M164.292,130.142c-1.133,0.243-2.266,0.262-3.398-0.01c0.309-0.402,0.805-0.313,1.21-0.465
					c0.256-0.048,0.511-0.046,0.766,0.001C163.334,129.854,163.925,129.666,164.292,130.142z"/>
				<path fill="#1D1E1E" d="M164.292,130.142c-0.481-0.144-1.029,0.137-1.473-0.235c0.744-0.615,1.643-0.294,2.47-0.412
					c0.275,0.051,0.515,0.157,0.647,0.425C165.412,130.173,164.848,130.128,164.292,130.142z"/>
				<path fill="#1D1E1E" d="M162.118,129.906c-0.359,0.338-0.822,0.118-1.224,0.226c-0.364-0.028-0.728-0.056-1.092-0.083
					c0.18-0.078,0.36-0.156,0.54-0.233C160.953,129.46,161.55,129.403,162.118,129.906z"/>
				<path fill="#1C2C32" d="M168.396,128.987c0.096,0.075,0.191,0.151,0.287,0.226c-0.37,0.249-0.794,0.333-1.224,0.397
					c-0.147-0.08-0.316-0.143-0.275-0.365C167.524,128.862,167.922,128.746,168.396,128.987z"/>
				<path fill="#132126" d="M167.185,129.366c0.091,0.081,0.182,0.163,0.273,0.244c-0.31,0.074-0.62,0.147-0.929,0.221
					c-0.137-0.069-0.302-0.112-0.29-0.318c0.134-0.3,0.391-0.326,0.672-0.302C167.017,129.237,167.109,129.288,167.185,129.366z"/>
				<path fill="#171A1B" d="M166.218,129.586c0.104,0.082,0.207,0.163,0.311,0.245c-0.198,0.03-0.395,0.059-0.593,0.089
					c-0.189-0.083-0.377-0.166-0.566-0.249C165.627,129.376,165.913,129.384,166.218,129.586z"/>
				<path fill="#009CDB" d="M166.218,129.586c-0.283,0.028-0.566,0.056-0.848,0.084c-0.829,0.315-1.709,0.068-2.551,0.236
					c-0.234,0-0.468,0-0.701,0c-0.592-0.03-1.184-0.06-1.776-0.091c-0.485-0.132-0.971-0.264-1.456-0.396
					c0.736-1.486,2.022-2.521,3.067-3.753c0.401-0.354,0.786,0.094,1.181,0.022c0.983,0.228,1.976,0.122,2.966,0.08
					c0.295-0.03,0.59-0.061,0.885-0.091c0.591,0.12,0.131,0.356,0.022,0.461c-0.89,0.845-0.984,1.838-0.231,2.815
					c0.093,0.12,0.217,0.212,0.197,0.385C166.722,129.421,166.47,129.504,166.218,129.586z"/>
				<path fill="#0092C4" d="M166.973,129.339c-1.552-0.308-0.732-1.685-1.087-2.526c-0.312-0.738,0.591-0.575,0.951-0.816
					c0.12-0.08,0.311-0.113,0.148-0.319c0.41-0.414,0.583-0.057,0.775,0.239c0.197,0.408,0.393,0.817,0.59,1.225
					c0.032,0.245,0.037,0.5,0.244,0.683c0.006,0.37,0.012,0.74,0.018,1.111c-0.076,0.001-0.148,0.019-0.216,0.052
					c-0.404,0.126-0.807,0.253-1.211,0.379C167.114,129.364,167.043,129.355,166.973,129.339z"/>
				<path fill="#001016" d="M166.101,125.769c-1,0.426-2.021,0.233-3.04,0.106c0.111-0.514,0.443-0.258,0.717-0.207
					c0.767-0.066,1.549,0.061,2.302-0.182C166.086,125.58,166.094,125.674,166.101,125.769z"/>
				<path fill="#240C08" d="M164.024,92.707c-0.035-0.498,0.472-0.566,0.687-0.865c0.149,0.039,0.298,0.078,0.448,0.117
					c-0.198,0.405-0.615,0.523-0.963,0.733C164.146,92.782,164.089,92.787,164.024,92.707z"/>
				<path fill="#171619" d="M155.962,109.435c0.226-0.307,0.539-0.242,0.842-0.189c1.757,0.307,3.524,0.256,5.293,0.17
					c0.252-0.047,0.322,0.062,0.25,0.292c-0.431,0.356-0.949-0.13-1.39,0.143c-0.08,0.001-0.16,0.002-0.239,0.003
					c-0.382-0.131-0.764-0.13-1.146,0C158.347,109.892,157.14,109.791,155.962,109.435z"/>
				<path fill="#7EBBDE" d="M162.369,110.767c-0.881,0.469-0.285,1.455-0.728,2.078c-0.462-0.221-0.392-0.666-0.446-1.059
					c0.035-0.466-0.112-0.957,0.189-1.386c0.112-0.158,0.224-0.315,0.337-0.473c0.243-0.31,0.446-0.023,0.665,0.043
					c0.125,0.097,0.22,0.216,0.282,0.361c0.022,0.102,0.013,0.202-0.027,0.299C162.556,110.687,162.465,110.732,162.369,110.767z"/>
				<path fill="#0E2E3C" d="M161.384,110.399c-0.002,0.456-0.004,0.911-0.005,1.367c-0.172,0.223,0.059,0.571-0.233,0.757
					C161.025,111.792,160.58,111.025,161.384,110.399z"/>
				<path fill="#222419" d="M165.059,111.522c-0.296-0.065-0.592-0.131-0.888-0.196c-0.334-0.056-0.67-0.107-0.782-0.506
					c0.01-0.116,0.057-0.216,0.136-0.302c0.724-0.09,1.326,0.096,1.72,0.756C165.233,111.393,165.171,111.476,165.059,111.522z"/>
				<path fill="#1D1A1C" d="M153.87,108.961c0.724-0.318,1.342-0.203,1.829,0.448C155.058,109.389,154.439,109.276,153.87,108.961z"
					/>
				<path fill="#001B25" d="M159.689,114.777c-0.599,0.118-1.107-0.101-1.586-0.429c0.026-0.167,0.176-0.187,0.292-0.247
					C158.854,114.274,159.45,114.184,159.689,114.777z"/>
				<path fill="#000E14" d="M158.395,114.102c-0.097,0.082-0.195,0.164-0.292,0.247c-0.496-0.14-0.979-0.305-1.335-0.709
					c-0.067-0.05-0.089-0.1-0.067-0.151c0.022-0.051,0.044-0.076,0.066-0.076C157.309,113.642,157.852,113.872,158.395,114.102z"/>
				<path fill="#2A2A19" d="M167.012,111.631c-0.232,0.102-0.464,0.203-0.696,0.305c-0.082,0.002-0.163,0.004-0.245,0.006
					c-0.248-0.183-0.751,0.091-0.801-0.447c0.035-0.19,0.148-0.309,0.328-0.37c0.365-0.075,0.701,0.049,1.041,0.151
					C166.806,111.349,166.942,111.456,167.012,111.631z"/>
				<path fill="#8DCAF0" d="M163.498,110.855c0.225,0.157,0.449,0.314,0.673,0.47c-0.725,0.215-1.193-0.4-1.803-0.558
					c0.094-0.072,0.189-0.144,0.283-0.216C163.047,110.339,163.282,110.57,163.498,110.855z"/>
				<path fill="#032431" d="M161.145,112.522c0.065-0.256-0.018-0.558,0.233-0.757c0.102,0.356-0.031,0.768,0.262,1.078
					c-0.003,0.18-0.005,0.358-0.008,0.537c-0.066,0.072-0.125,0.071-0.178-0.014C161.068,113.189,161.183,112.828,161.145,112.522z"
					/>
				<path d="M156.766,113.412c-0.004,0.076-0.003,0.151,0.002,0.227c-0.232-0.081-0.463-0.162-0.695-0.243
					c-0.158-0.16-0.317-0.321-0.475-0.481c0.091-0.005,0.182-0.011,0.273-0.016C156.261,112.911,156.545,113.106,156.766,113.412z"
					/>
				<path fill="#022736" d="M162.31,110.218c-0.175-0.141-0.29-0.404-0.59-0.292c-0.254-0.025-0.508-0.05-0.763-0.075
					c0.423-0.34,0.919-0.128,1.38-0.183C162.485,109.859,162.49,110.043,162.31,110.218z"/>
				<path fill="#001F2B" d="M161.454,113.367c0.059,0.008,0.119,0.013,0.178,0.014c0.292,0.102,0.324,0.365,0.368,0.614
					c0.003,0.015-0.135,0.091-0.183,0.073C161.486,113.949,161.427,113.677,161.454,113.367z"/>
				<path fill="#000304" d="M159.571,109.853c0.382-0.272,0.764-0.274,1.146,0C160.335,109.853,159.953,109.853,159.571,109.853z"/>
				<path fill="#4CA8D3" d="M165.274,111.504c0.266,0.146,0.532,0.292,0.797,0.437c-0.42,0.06-0.839,0.119-1.012-0.419
					c0.049-0.031,0.102-0.042,0.159-0.034L165.274,111.504z"/>
				<path fill="#EBC41B" d="M167.012,111.631c-0.159-0.047-0.318-0.094-0.476-0.14c-0.198-0.22-0.23-0.486-0.189-0.76
					c0.31-2.101,0.739-4.182,1.08-6.278c0.05-0.306,0.153-1.109,0.698-0.233c0.045,0.325,0.032,0.652,0.025,0.978
					c-0.21,0.599-0.237,1.223-0.247,1.85c-0.145,0.402-0.149,0.849-0.393,1.219c-0.091,0.619-0.322,1.22-0.238,1.862
					C167.078,110.61,166.97,111.107,167.012,111.631z"/>
				<path d="M167.51,108.265c-0.185-0.442,0.188-0.763,0.249-1.151c0.206-0.012,0.308,0.05,0.19,0.268
					c-0.025,0.366-0.051,0.732-0.076,1.097C167.752,108.407,167.631,108.336,167.51,108.265z"/>
				<path fill="#020100" d="M163.256,99.864c0.042-0.498-0.276-0.634-0.681-0.642c-0.413-0.008-0.392-0.186-0.215-0.455
					c0.472-0.129,0.766-0.728,1.366-0.519c0.267-0.105,0.531-0.175,0.755,0.087c-0.069,0.475-0.64,0.68-0.64,1.192
					c-0.012,0.11-0.031,0.217-0.051,0.326c-0.054,0.225-0.106,0.452-0.345,0.563C163.118,100.323,163.143,100.108,163.256,99.864z"
					/>
				<path fill="#ED9776" d="M162.566,95.921c0.03-0.04,0.035-0.083,0.017-0.129c-0.014-0.25,0.064-0.481,0.139-0.714
					c0.052-0.091,0.131-0.139,0.236-0.146c0.176,0.028,0.214,0.186,0.292,0.307c-0.074,0.551-0.144,1.103-0.223,1.653
					c-0.06,0.412-0.123,0.829-0.64,0.929c-0.107-0.074-0.176-0.174-0.208-0.3C162.229,96.969,162.254,96.411,162.566,95.921z"/>
				<path fill="#3C2E0B" d="M164.431,98.473c-0.175-0.262-0.473-0.139-0.704-0.224c0.373-0.247,0.785-0.218,1.199-0.168
					c0.671,0.237,1.393-0.091,2.06,0.189c0.165,0.017,0.331,0.035,0.496,0.052c0.032,0.159-0.025,0.275-0.17,0.349
					C166.333,98.883,165.353,99.101,164.431,98.473z"/>
				<path fill="#37150C" d="M162.314,97.569c0.024,0.084,0.048,0.168,0.073,0.253c-0.095,0.226-0.19,0.451-0.285,0.677
					c-0.43-0.472-0.192-0.946-0.006-1.42C162.296,97.185,162.187,97.429,162.314,97.569z"/>
				<path fill="#010000" d="M166.986,98.27c-0.681-0.124-1.402,0.185-2.06-0.189C165.616,98.114,166.336,97.807,166.986,98.27z"/>
				<path fill="#3F271E" d="M164.024,92.707c0.056-0.019,0.114-0.024,0.172-0.015c-0.089,0.244-0.178,0.489-0.266,0.733
					c-0.111,0.102-0.242,0.144-0.392,0.129c-0.094-0.026-0.171-0.077-0.229-0.157C163.383,92.998,163.594,92.739,164.024,92.707z"/>
				<path fill="#F9A886" d="M163.25,95.239c-0.079-0.093-0.157-0.186-0.236-0.279c-0.221-0.381-0.065-0.667,0.233-0.916
					c0.201-0.012,0.345,0.034,0.292,0.284C163.442,94.632,163.346,94.936,163.25,95.239z"/>
				<path fill="#D7886A" d="M163.538,94.328c-0.069-0.075-0.139-0.15-0.208-0.225c-0.18-0.359,0.041-0.535,0.314-0.688
					c0.095,0.003,0.191,0.006,0.286,0.01C163.932,93.784,163.792,94.08,163.538,94.328z"/>
				<path d="M167.478,98.46c0.004-0.046,0.006-0.092,0.004-0.138c0.376-0.004,0.752-0.009,1.129-0.013
					c-0.094,0.081-0.187,0.161-0.281,0.242C168.02,98.764,167.732,98.772,167.478,98.46z"/>
				<path fill="#301E13" d="M162.404,107.119c0.067-0.78,0.134-1.559,0.201-2.339c0.191-0.149,0.369-0.126,0.536,0.04
					c0.133,1.108,0.179,2.208-0.375,3.237C162.195,107.919,162.642,107.386,162.404,107.119z"/>
				<path fill="#2D1910" d="M162.404,107.119c0.279,0.276,0.137,0.641,0.204,0.962c0.477,0.609,0.204,1.338,0.322,2.006
					c-0.046,0.192-0.106,0.369-0.367,0.278c-0.085-0.049-0.169-0.098-0.254-0.146c0.009-0.184,0.018-0.367,0.027-0.551
					c-0.08-0.084-0.161-0.168-0.241-0.252C162.199,108.65,162.302,107.884,162.404,107.119z"/>
				<path fill="#311A10" d="M163.015,104.778c-0.136,0.001-0.273,0.001-0.409,0.002c0.077-0.543,0.154-1.086,0.231-1.629
					c0.169-0.144,0.011-0.508,0.36-0.531c0.121,0.042,0.207,0.122,0.258,0.24C163.56,103.557,163.466,104.209,163.015,104.778z"/>
				<path fill="#341109" d="M163.24,102.683c-0.063,0.001-0.126,0.002-0.189,0.003c-0.179-0.253-0.121-0.516-0.031-0.78
					c0.036-0.686-0.083-1.389,0.237-2.042c0.069,0.163,0.139,0.327,0.208,0.49C163.657,101.156,163.801,101.954,163.24,102.683z"/>
				<path fill="#27150F" d="M163.644,93.415c-0.105,0.229-0.209,0.458-0.314,0.688c-0.23,0.24-0.305,0.537-0.317,0.858
					c-0.065,0.02-0.127,0.047-0.186,0.079c-0.098-0.054-0.168-0.132-0.207-0.237c0.069-0.546,0.315-1.006,0.687-1.404
					C163.42,93.404,163.532,93.409,163.644,93.415z"/>
				<path fill="#030101" d="M162.314,97.569c-0.073-0.163-0.145-0.327-0.218-0.49c0.09-0.413-0.159-0.964,0.47-1.157
					C162.482,96.47,162.398,97.019,162.314,97.569z"/>
				<path d="M162.621,94.802c0.069,0.079,0.138,0.158,0.206,0.237c-0.017,0.272-0.045,0.54-0.245,0.752
					C162.186,95.446,162.556,95.13,162.621,94.802z"/>
				<path fill="#3C140A" d="M163.019,101.906c0.01,0.26,0.021,0.52,0.031,0.78c-0.006,0.185-0.039,0.358-0.214,0.465
					C162.825,102.725,162.797,102.298,163.019,101.906z"/>
				<path fill="#040101" d="M167.949,107.381c-0.063-0.089-0.127-0.179-0.19-0.268c-0.013-0.628-0.167-1.273,0.216-1.856
					c0.418,0.01,0.281,0.265,0.215,0.489C168.128,106.295,168.242,106.868,167.949,107.381z"/>
				<path fill="#46170C" d="M168.589,102.437c-0.001,0.391-0.002,0.781-0.003,1.172c-0.059,0.005-0.116,0.017-0.172,0.036
					c-0.286-0.19-0.366-0.498-0.46-0.799c-0.041-0.436-0.183-0.908,0.393-1.129C168.43,101.956,168.34,102.253,168.589,102.437z"/>
				<path d="M168.213,102.923c0.227,0.196,0.13,0.482,0.201,0.722c-0.021,0.369-0.042,0.737-0.062,1.106
					c-0.457,0.011-0.242-0.348-0.305-0.554C168.048,103.765,167.702,103.288,168.213,102.923z"/>
				<path fill="#3C140A" d="M168.127,104.284c0.075,0.156,0.15,0.312,0.224,0.468c0.035,0.346,0.069,0.692-0.16,0.996
					c-0.072-0.163-0.144-0.326-0.215-0.489c-0.003-0.292-0.006-0.584-0.008-0.876C167.976,104.278,168.029,104.245,168.127,104.284z
					"/>
				<path fill="#DEAA27" d="M168.127,104.284c-0.055,0.03-0.108,0.063-0.16,0.098c-0.087-0.051-0.197-0.499-0.233-0.137
					c-0.243,2.443-0.859,4.821-1.198,7.245c-0.314-0.079-0.628-0.158-0.942-0.237c-0.32-0.379-0.17-0.812-0.129-1.226
					c0.294-3.002,0.838-5.977,0.984-8.995c0.058-1.186,0.017-1.208-1.201-1.261c-0.567-0.025-1.173,0.123-1.663-0.318
					c0.048-0.529,0.13-1.028,0.846-0.98c1.016-0.004,2.031-0.009,3.047-0.013c0.284,0.03,0.568,0.061,0.852,0.091
					c0.015,0.068,0.021,0.137,0.019,0.207c-0.127,0.686-0.117,1.373-0.006,2.06c0.001,0.299,0.003,0.599,0.004,0.898
					c-0.169,0.389-0.181,0.795-0.134,1.207C168.184,103.377,168.155,103.83,168.127,104.284z"/>
				<path fill="#F4C621" d="M168.343,100.818c-0.289-0.687-0.288-1.374,0.006-2.06c0.026,0.46,0.051,0.92,0.077,1.379
					C168.398,100.365,168.37,100.592,168.343,100.818z"/>
				<path fill="#E9E9E9" d="M159.317,127.145c0,0,0.011,0.052,0.011,0.052c-0.597,0.184-0.652-0.401-0.938-0.659
					c0.002-0.105,0.005-0.209,0.008-0.314c-0.048-0.38,0.263-0.572,0.437-0.836c0.04-0.03,0.051-0.068,0.032-0.114
					c0.331-0.349,0.677-0.069,1.018-0.026c0.1,0.038,0.191,0.092,0.273,0.161c0.185,0.21,0.325,0.43,0.156,0.717
					c-0.016,0.076-0.033,0.153-0.049,0.229C159.949,126.618,159.61,126.854,159.317,127.145z"/>
				<path fill="#FCD220" d="M156.579,117.302c0.018-0.313-0.226-0.684,0.196-0.91c0.237,0.466,0.681,0.699,1.138,0.672
					c0.92-0.055,0.98,0.447,0.961,1.153c-0.035,1.275-0.033,2.552,0,3.827c0.015,0.573-0.167,0.884-0.758,0.901
					c-0.466-0.038-0.954,0.024-1.364-0.286C157.097,120.86,157.261,119.067,156.579,117.302z"/>
				<path fill="#FDD21D" d="M160.412,117.099c0.163,1.851,0.076,3.704,0.046,5.557c-0.06,0.082-0.127,0.084-0.2,0.017
					C159.908,120.804,159.81,118.942,160.412,117.099z"/>
				<path fill="#2C2920" d="M160.258,122.673c0.067,0.002,0.134-0.004,0.2-0.017c0.092,0.079,0.183,0.157,0.275,0.235
					c-0.175,0.685-0.648,0.685-1.193,0.52l0.026-0.073c-0.149-0.147-0.429-0.017-0.536-0.253
					C159.397,122.821,159.925,123.036,160.258,122.673z"/>
				<path fill="#231D07" d="M159.03,123.085c0.179,0.084,0.357,0.169,0.536,0.253c-0.694,0.112-1.386,0.076-2.077-0.027
					c0.192-0.229,0.474-0.157,0.717-0.215C158.481,123.092,158.756,123.089,159.03,123.085z"/>
				<path d="M157.485,116.365c-0.01-0.055-0.019-0.11-0.025-0.165c0.619,0.001,1.239,0.001,1.859,0.002
					c-0.192,0.243-0.482,0.166-0.731,0.225C158.22,116.406,157.852,116.386,157.485,116.365z"/>
				<path fill="#181818" d="M165.552,124.005c0.094,0.086,0.188,0.173,0.282,0.259c-0.294,0.32-0.722,0.046-1.046,0.235
					c-0.5-0.08-1.001-0.16-1.501-0.24c0.168-0.073,0.335-0.146,0.503-0.22c0.301-0.3,0.686-0.266,1.062-0.271
					C165.107,123.781,165.353,123.824,165.552,124.005z"/>
				<path fill="#1E2F36" d="M163.778,125.668c-0.233,0.089-0.524-0.024-0.717,0.207c-0.369-0.07-0.739-0.139-1.108-0.209
					c-0.041-0.055-0.078-0.113-0.112-0.174c0.022-0.161,0.164-0.182,0.276-0.239C162.67,125.391,163.224,125.53,163.778,125.668z"/>
				<path fill="#0E1213" d="M162.117,125.253c-0.092,0.08-0.184,0.159-0.276,0.239c-0.218,0.069-0.436,0.138-0.655,0.206
					c-0.121-0.327-0.241-0.655,0.077-0.946c0.119-0.152,0.238-0.304,0.356-0.456C161.644,124.688,161.695,125.067,162.117,125.253z"
					/>
				<path fill="#F6F5F4" d="M164.788,124.499c0.349-0.078,0.697-0.157,1.046-0.235c0.076,0.018,0.151,0.036,0.227,0.054
					c-0.155,0.146-0.31,0.292-0.465,0.438C165.327,124.671,165.058,124.585,164.788,124.499z"/>
				<path fill="#D6D2D0" d="M159.541,123.411c0.413-0.139,0.865-0.186,1.193-0.52c0.066,0.011,0.132,0.015,0.199,0.013
					c0.066,0.157,0.132,0.314,0.198,0.471c-0.208,0.292-0.323,0.641-0.564,0.913c-0.189,0.093-0.381,0.217-0.544-0.04
					C159.975,123.904,158.754,124.236,159.541,123.411z"/>
				<path fill="#FCD11D" d="M164.896,123.999c-0.368,0.013-0.737,0.027-1.105,0.04c-0.401-0.14-0.802-0.281-1.203-0.421
					c0.047,0.022,0.091,0.017,0.131-0.016c0.14-1.774,0.23-3.546-0.097-5.311c-0.006-0.241-0.013-0.481-0.019-0.722
					c0.62-0.165,1.189,0.126,1.776,0.221c0.454,0.074,0.755,0.435,0.793,0.888c0.138,1.647,0.18,3.297-0.027,4.943
					C165.125,123.773,165.013,123.895,164.896,123.999z"/>
				<path fill="#DDA827" d="M164.896,123.999c0.002-1.579-0.017-3.159,0.016-4.737c0.016-0.754-0.091-1.341-1.034-1.235
					c-0.514,0.058-0.79-0.478-1.276-0.457c-0.022-0.067-0.039-0.136-0.054-0.205c0.322-0.027,0.645-0.053,0.967-0.08
					c0.462-0.001,0.924-0.002,1.386-0.003c0.39,0.016,0.78,0.033,1.171,0.049c-0.001,1.702-0.01,3.403,0.004,5.105
					c0.003,0.407-0.147,0.864,0.254,1.192c-0.26,0.126-0.519,0.251-0.778,0.377C165.333,124.003,165.114,124.001,164.896,123.999z"
					/>
				<path fill="#FEED8E" d="M162.621,118.291c0.657,1.759,0.593,3.531,0.097,5.311C162.434,121.837,162.61,120.062,162.621,118.291z
					"/>
				<path fill="#0087B8" d="M161.263,124.752c0.163,0.331,0.061,0.64-0.077,0.946c0,0,0.02-0.014,0.02-0.014
					c-0.477,0.333-0.816-0.041-1.191-0.232l0.014,0.017c-0.136-0.151-0.14-0.307-0.021-0.469c0.383-0.006,0.759-0.025,0.944-0.448
					c0.072-0.123,0.148-0.121,0.229-0.009C161.188,124.622,161.215,124.691,161.263,124.752z"/>
				<path fill="#0E1213" d="M161.181,124.545c-0.076,0.003-0.152,0.006-0.229,0.009c-0.223-0.005-0.445-0.009-0.668-0.014
					c-0.227,0.1-0.457,0.207-0.48-0.195c0.073-0.032,0.145-0.064,0.218-0.096c0.202,0.041,0.375,0.015,0.47-0.198
					c0.163-0.114,0.32-0.135,0.467,0.026C161.034,124.233,161.107,124.389,161.181,124.545z"/>
				<path fill="#FAFAF9" d="M160.96,124.077c-0.156-0.009-0.312-0.018-0.467-0.026c0.173-0.263,0.221-0.643,0.638-0.675
					C161.236,123.649,161.183,123.884,160.96,124.077z"/>
				<path fill="#151515" d="M159.805,124.345c0.16,0.065,0.32,0.13,0.48,0.195c-0.197,0.263-0.475,0.177-0.735,0.17
					c-0.611-0.113-1.222-0.119-1.833,0.004c-0.354,0.043-0.685,0.041-0.788-0.406C157.887,124.37,158.844,124.474,159.805,124.345z"
					/>
				<path d="M157.717,124.714c0.61-0.246,1.221-0.243,1.833-0.004C158.939,124.711,158.328,124.712,157.717,124.714z"/>
				<path fill="#060C0D" d="M160.008,125.001c0.007,0.156,0.014,0.312,0.021,0.469c-0.387-0.065-0.775-0.13-1.162-0.195
					C159.133,124.706,159.63,125.103,160.008,125.001z"/>
				<path fill="#10171A" d="M158.835,125.388c-0.146,0.279-0.291,0.557-0.437,0.836
					C157.928,125.624,158.325,125.477,158.835,125.388z"/>
				<path d="M160.015,125.453c0.397,0.077,0.794,0.154,1.191,0.232c-0.188,0.369-0.414,0.66-0.892,0.441
					C160.444,125.799,160.084,125.691,160.015,125.453z"/>
				<path fill="#101213" d="M159.317,127.145c0.136-0.479,0.463-0.729,0.947-0.791C160.12,126.823,159.797,127.078,159.317,127.145z
					"/>
				<path fill="#26271A" d="M162.563,110.364c0.084-0.069,0.168-0.138,0.252-0.206c0.078-0.085,0.175-0.118,0.289-0.107
					c0.224,0.122,0.565,0.159,0.406,0.559c-0.004,0.082-0.009,0.164-0.013,0.245c-0.282-0.101-0.564-0.203-0.846-0.304
					C162.631,110.484,162.601,110.422,162.563,110.364z"/>
				<path fill="#FDD31D" d="M163.511,110.61c-0.17-0.153-0.339-0.307-0.509-0.46c-0.5-1.459,0.068-2.882,0.19-4.31
					c0.176-2.057,0.415-4.107,0.368-6.176c-0.048-0.076-0.04-0.146,0.024-0.21c0.851-0.003,1.702-0.015,2.552-0.007
					c0.625,0.005,0.846,0.237,0.757,0.944c-0.396,3.162-0.711,6.334-1.065,9.501c-0.051,0.457-0.155,0.908-0.235,1.361
					c-0.107,0.084-0.213,0.167-0.32,0.251c0,0-0.056-0.017-0.056-0.016C164.853,110.799,164.138,110.79,163.511,110.61z"/>
				<path fill="#F1DC90" d="M163.561,99.663c0.447,1.272,0.208,2.579,0.118,3.858c-0.155,2.214-0.443,4.42-0.676,6.628
					c-0.062,0.002-0.125,0.005-0.187,0.008c-0.561-0.643-0.053-1.393-0.207-2.077c0.296-1.081,0.273-2.201,0.406-3.302
					c0.075-0.698,0.15-1.397,0.225-2.095c0.253-0.759-0.145-1.581,0.225-2.329C163.497,100.124,163.529,99.893,163.561,99.663z"/>
			</g>
		</g>
		<g>
			<defs>
				<path id="SVGID_3_" d="M193.12,91.793c0,0.688-0.556,1.249-1.242,1.249h-70.701c-0.692,0-1.264-0.562-1.264-1.249V57.367
					c0-0.688,0.567-1.25,1.264-1.25h70.701c0.688,0,1.242,0.562,1.242,1.25V91.793z"/>
			</defs>
			<clipPath id="SVGID_4_">
				<use xlink:href="#SVGID_3_"  overflow="visible"/>
			</clipPath>
		</g>
	</g>
	<path fill="none" stroke="#13110C" stroke-width="6" d="M185.608,93.131c0-9.027-9.754-15.581-18.487-15.581
		c-8.732,0-18.476,6.668-18.476,15.581"/>
	<g>
		<path fill="#231F20" d="M28.247,86.558c0,0.682-0.549,1.243-1.236,1.243H10.199c-0.684,0-1.248-0.562-1.248-1.243V62.517
			c0-0.689,0.564-1.243,1.248-1.243h16.811c0.689,0,1.236,0.554,1.236,1.243V86.558z"/>
		<path fill="none" stroke="#13110C" stroke-width="6" d="M18.601,87.801c0,5.763,7.994,10.417,17.886,10.417"/>
	</g>
	<g>
		<path fill="#231F20" d="M212.143,86.558c0,0.682,0.565,1.243,1.241,1.243h16.812c0.677,0,1.242-0.562,1.242-1.243V62.517
			c0-0.689-0.565-1.243-1.242-1.243h-16.812c-0.676,0-1.241,0.554-1.241,1.243V86.558z"/>
		<path fill="none" stroke="#13110C" stroke-width="6" d="M221.794,87.801c0,5.763-7.994,10.417-17.883,10.417"/>
	</g>
	<path fill="#E30613" stroke="#DD1215" stroke-width="0.2339" d="M173.449,34.682c0,5.866,4.735,10.608,10.596,10.608
		c5.854,0,10.603-4.742,10.603-10.608c0-5.839-4.748-10.596-10.603-10.596C178.186,24.086,173.449,28.843,173.449,34.682z"/>
	<path fill="#E30613" stroke="#DD1215" stroke-width="0.2339" d="M44.56,34.682c0,5.866,4.744,10.608,10.584,10.608
		c5.863,0,10.613-4.742,10.613-10.608c0-5.839-4.75-10.596-10.613-10.596C49.304,24.086,44.56,28.843,44.56,34.682z"/>
</g>
<g>
	<path d="M92.932,41.306c-0.767,0.383-2.3,0.767-4.264,0.767c-4.552,0-7.978-2.875-7.978-8.169c0-5.055,3.426-8.48,8.433-8.48
		c2.012,0,3.282,0.431,3.833,0.719l-0.503,1.701c-0.79-0.384-1.916-0.671-3.258-0.671c-3.785,0-6.3,2.419-6.3,6.66
		c0,3.953,2.276,6.492,6.205,6.492c1.27,0,2.563-0.264,3.402-0.671L92.932,41.306z"/>
	<path d="M95.546,25.901c1.054-0.215,2.563-0.335,4-0.335c2.228,0,3.666,0.407,4.671,1.317c0.815,0.719,1.27,1.821,1.27,3.066
		c0,2.132-1.342,3.545-3.043,4.121v0.072c1.246,0.431,1.988,1.581,2.372,3.258c0.527,2.252,0.91,3.809,1.246,4.432h-2.156
		c-0.264-0.455-0.623-1.845-1.078-3.857c-0.479-2.228-1.342-3.066-3.234-3.138H97.63v6.995h-2.084V25.901z M97.63,33.256h2.132
		c2.228,0,3.641-1.222,3.641-3.066c0-2.084-1.509-2.995-3.713-3.018c-1.006,0-1.725,0.096-2.061,0.191V33.256z"/>
	<path d="M108.436,41.833V25.686h2.276l5.174,8.169c1.198,1.892,2.132,3.594,2.899,5.246l0.048-0.024
		c-0.192-2.156-0.24-4.121-0.24-6.636v-6.756h1.964v16.146h-2.108l-5.127-8.193c-1.126-1.797-2.204-3.642-3.018-5.39l-0.072,0.024
		c0.12,2.036,0.168,3.977,0.168,6.66v6.899H108.436z"/>
	<path d="M124.201,25.901c0.911-0.191,2.348-0.335,3.809-0.335c2.084,0,3.426,0.359,4.432,1.174
		c0.839,0.623,1.342,1.581,1.342,2.851c0,1.557-1.03,2.923-2.731,3.545v0.048c1.533,0.383,3.33,1.653,3.33,4.049
		c0,1.39-0.551,2.443-1.365,3.234c-1.126,1.03-2.946,1.509-5.582,1.509c-1.438,0-2.539-0.096-3.234-0.191V25.901z M126.286,32.514
		h1.893c2.203,0,3.497-1.15,3.497-2.707c0-1.893-1.437-2.635-3.545-2.635c-0.959,0-1.51,0.072-1.845,0.143V32.514z M126.286,40.251
		c0.407,0.072,1.006,0.096,1.748,0.096c2.156,0,4.145-0.791,4.145-3.138c0-2.204-1.893-3.114-4.168-3.114h-1.725V40.251z"/>
	<path d="M139.273,25.686v9.559c0,3.617,1.605,5.15,3.761,5.15c2.395,0,3.929-1.581,3.929-5.15v-9.559h2.108v9.415
		c0,4.959-2.611,6.996-6.109,6.996c-3.306,0-5.797-1.893-5.797-6.899v-9.511H139.273z"/>
	<path d="M152.403,39.293c0.935,0.575,2.3,1.054,3.737,1.054c2.132,0,3.378-1.126,3.378-2.755c0-1.509-0.862-2.372-3.043-3.21
		c-2.635-0.935-4.264-2.3-4.264-4.576c0-2.516,2.084-4.384,5.223-4.384c1.652,0,2.851,0.383,3.569,0.791l-0.575,1.701
		c-0.527-0.288-1.605-0.767-3.066-0.767c-2.204,0-3.043,1.317-3.043,2.42c0,1.509,0.982,2.252,3.211,3.114
		c2.73,1.054,4.12,2.372,4.12,4.743c0,2.492-1.845,4.648-5.653,4.648c-1.558,0-3.259-0.455-4.121-1.03L152.403,39.293z"/>
</g>
</svg>
